<svg width="60" height="60" viewBox="0 0 60 60" fill="none" xmlns="http://www.w3.org/2000/svg">
<path d="M5.42285 18.24V41.76C5.42285 43.272 6.21485 44.64 7.53485 45.408L27.9109 57.168C29.2069 57.912 30.8149 57.912 32.1109 57.168L52.4869 45.408C53.7829 44.664 54.5989 43.272 54.5989 41.76V18.24C54.5989 16.728 53.8069 15.36 52.4869 14.592L32.1109 2.83205C30.8149 2.08805 29.2069 2.08805 27.9109 2.83205L7.53485 14.592C6.23885 15.336 5.44685 16.728 5.44685 18.24H5.42285Z" fill="#213147"/>
<path d="M34.4429 34.5603L31.5389 42.5283C31.4669 42.7443 31.4669 42.9843 31.5389 43.2243L36.5309 56.9283L42.3149 53.5923L35.3789 34.5603C35.2109 34.1283 34.6109 34.1283 34.4429 34.5603Z" fill="#12AAFF"/>
<path d="M40.2724 21.1684C40.1044 20.7364 39.5044 20.7364 39.3364 21.1684L36.4324 29.1364C36.3604 29.3524 36.3604 29.5924 36.4324 29.8324L44.6164 52.2724L50.4004 48.9364L40.2724 21.1924V21.1684Z" fill="#12AAFF"/>
<path d="M29.9997 3.72C30.1437 3.72 30.2877 3.768 30.4077 3.84L52.4397 16.56C52.7037 16.704 52.8477 16.992 52.8477 17.28V42.72C52.8477 43.008 52.6797 43.296 52.4397 43.44L30.4077 56.16C30.2877 56.232 30.1437 56.28 29.9997 56.28C29.8557 56.28 29.7117 56.232 29.5917 56.16L7.55971 43.44C7.29571 43.296 7.15171 43.008 7.15171 42.72V17.256C7.15171 16.968 7.31971 16.68 7.55971 16.536L29.5917 3.816C29.7117 3.744 29.8557 3.696 29.9997 3.696V3.72ZM29.9997 0C29.2077 0 28.4397 0.192 27.7197 0.6L5.68771 13.32C4.27171 14.136 3.40771 15.624 3.40771 17.256V42.696C3.40771 44.328 4.27171 45.816 5.68771 46.632L27.7197 59.352C28.4157 59.76 29.2077 59.952 29.9997 59.952C30.7917 59.952 31.5597 59.76 32.2797 59.352L54.3117 46.632C55.7277 45.816 56.5917 44.328 56.5917 42.696V17.256C56.5917 15.624 55.7277 14.136 54.3117 13.32L32.2557 0.6C31.5597 0.192 30.7677 0 29.9757 0H29.9997Z" fill="#9DCCED"/>
<path d="M15.4058 52.2961L17.4458 46.7281L21.5258 50.1121L17.7098 53.6161L15.4058 52.2961Z" fill="#213147"/>
<path d="M28.1261 15.4559H22.5341C22.1261 15.4559 21.7421 15.7199 21.5981 16.1039L9.62207 48.9359L15.4061 52.2719L28.6061 16.1039C28.7261 15.7679 28.4861 15.4319 28.1501 15.4319L28.1261 15.4559Z" fill="white"/>
<path d="M37.918 15.4559H32.326C31.918 15.4559 31.534 15.7199 31.39 16.1039L17.71 53.5919L23.494 56.9279L38.374 16.1039C38.494 15.7679 38.254 15.4319 37.918 15.4319V15.4559Z" fill="white"/>
</svg>
