<svg width="48" height="48" viewBox="0 0 48 48" fill="none" xmlns="http://www.w3.org/2000/svg">
<path d="M14.1953 33.6843C14.8378 34.3391 15.9545 34.3158 16.578 33.6951L23.918 26.34L31.2676 33.6897C31.902 34.3241 32.9928 34.3364 33.6353 33.6816C34.3024 33.0268 34.2901 31.936 33.6434 31.3016L26.3088 23.9492L33.6434 16.6146C34.2901 15.9776 34.3024 14.8744 33.6353 14.2347C32.9928 13.5799 31.902 13.5922 31.2676 14.2238L23.918 21.5708L16.578 14.2211C15.9545 13.5976 14.8378 13.5771 14.1953 14.2292C13.5432 14.8717 13.5637 15.9884 14.1872 16.6119L21.5423 23.9492L14.1872 31.3043C13.5637 31.9278 13.5432 33.0295 14.1953 33.6843Z" fill="black"/>
</svg>
