<svg width="203" height="203" viewBox="0 0 203 203" fill="none" xmlns="http://www.w3.org/2000/svg">
<path d="M63.7617 8.01105L56.3974 8.01105V3.15045C56.3974 1.76756 57.5184 0.646501 58.9012 0.646501L63.7617 0.646501V8.01105Z" fill="black"/>
<path d="M63.7666 8.01068V0.646135H68.6271C70.0099 0.646135 71.131 1.76719 71.131 3.15008V8.01068H63.7666Z" fill="black"/>
<path d="M112.163 2.75256V5.91195C112.163 7.07555 113.104 8.01085 114.267 8.01085H117.423C118.593 8.01085 119.527 7.06819 119.527 5.90459V2.75256C119.52 1.5816 118.578 0.646301 117.416 0.646301H114.267C113.104 0.646301 112.163 1.58896 112.163 2.75256Z" fill="black"/>
<path d="M139.512 8.01074V3.15014C139.512 1.76725 140.633 0.646196 142.016 0.646196H144.373C145.756 0.646196 146.877 1.76725 146.877 3.15014V8.01074H139.512Z" fill="black"/>
<path d="M63.7617 8.0108V12.8714C63.7617 14.2543 62.6407 15.3753 61.2578 15.3753H58.9012C57.5184 15.3753 56.3974 14.2543 56.3974 12.8714V8.0108H63.7617Z" fill="black"/>
<path d="M67.9746 14.186V14.324H70.0787V12.2198H69.9407C69.9407 13.3098 69.0577 14.186 67.9746 14.186Z" fill="black"/>
<path d="M70.0791 15.3753V10.5147C70.0791 9.13178 71.2001 8.01073 72.583 8.01073H74.9396C76.3224 8.01073 77.4435 9.13178 77.4435 10.5147V15.3753H70.0791Z" fill="black"/>
<path d="M81.6538 14.186V14.324H83.7579V12.2198H83.6199C83.6199 13.3098 82.7369 14.186 81.6538 14.186Z" fill="black"/>
<path d="M91.1157 15.376L83.7514 15.376V10.5154C83.7514 9.13248 84.8724 8.01143 86.2552 8.01143H91.1157V15.376Z" fill="black"/>
<path d="M91.1201 15.3753V8.01073H95.9806C97.3635 8.01073 98.4845 9.13178 98.4845 10.5147V15.3753H91.1201Z" fill="black"/>
<path d="M125.837 15.3757L118.473 15.3757V10.5151C118.473 9.13218 119.594 8.01112 120.976 8.01112H125.837V15.3757Z" fill="black"/>
<path d="M125.837 15.3753V8.01073H130.697C132.08 8.01073 133.201 9.13178 133.201 10.5147V15.3753H125.837Z" fill="black"/>
<path d="M146.874 8.01126V12.8719C146.874 14.2548 145.753 15.3758 144.37 15.3758H142.013C140.63 15.3758 139.509 14.2548 139.509 12.8719V8.01126H146.874Z" fill="black"/>
<path d="M71.1299 21.6883H66.2694C64.8865 21.6883 63.7655 20.5672 63.7655 19.1843V16.8277C63.7655 15.4448 64.8865 14.3237 66.2694 14.3237H71.1299V21.6883Z" fill="black"/>
<path d="M77.4435 14.3235H70.0791V21.688H77.4435V14.3235Z" fill="black"/>
<path d="M84.8068 14.3239H77.4424V21.6885H84.8068V14.3239Z" fill="black"/>
<path d="M83.7563 14.3235H91.1207V19.1841C91.1207 20.5669 89.9997 21.688 88.6168 21.688H83.7563V14.3235Z" fill="black"/>
<path d="M125.837 14.3236V19.1842C125.837 20.5671 124.716 21.6882 123.333 21.6882H120.976C119.594 21.6882 118.473 20.5671 118.473 19.1842V14.3236H125.837Z" fill="black"/>
<path d="M56.4019 29.0524V24.1918C56.4019 22.8089 57.5229 21.6879 58.9057 21.6879H61.2623C62.6452 21.6879 63.7662 22.8089 63.7662 24.1918V29.0524H56.4019Z" fill="black"/>
<path d="M77.439 21.6882V29.0527H72.5785C71.1956 29.0527 70.0746 27.9317 70.0746 26.5488V21.6882H77.439Z" fill="black"/>
<path d="M77.4424 21.6879H84.8068V26.5485C84.8068 27.9314 83.6857 29.0524 82.3029 29.0524H77.4424V21.6879Z" fill="black"/>
<path d="M96.3809 28.9146V29.0526H98.485V26.9484H98.347C98.347 28.0384 97.464 28.9146 96.3809 28.9146Z" fill="black"/>
<path d="M98.4824 29.0524V24.1918C98.4824 22.8089 99.6034 21.6879 100.986 21.6879H103.343C104.726 21.6879 105.847 22.8089 105.847 24.1918V29.0524H98.4824Z" fill="black"/>
<path d="M133.203 23.7942V26.9535C133.203 28.1171 134.144 29.0524 135.307 29.0524H138.463C139.633 29.0524 140.567 28.1098 140.567 26.9462V23.7942C140.56 22.6232 139.618 21.6879 138.456 21.6879H135.307C134.144 21.6879 133.203 22.6306 133.203 23.7942Z" fill="black"/>
<path d="M63.7662 28.0003H56.4019V35.3649H63.7662V28.0003Z" fill="black"/>
<path d="M63.7666 35.3647V28.0001H68.6271C70.0099 28.0001 71.131 29.1212 71.131 30.5041V35.3647H63.7666Z" fill="black"/>
<path d="M98.4814 35.365H91.1171V30.5044C91.1171 29.1215 92.2381 28.0004 93.621 28.0004H98.4814V35.365Z" fill="black"/>
<path d="M105.847 28.0003H98.4824V35.3649H105.847V28.0003Z" fill="black"/>
<path d="M104.798 35.3647V28.0001H109.658C111.041 28.0001 112.162 29.1212 112.162 30.5041V35.3647H104.798Z" fill="black"/>
<path d="M125.837 35.365H118.473V30.5044C118.473 29.1215 119.594 28.0004 120.976 28.0004H125.837V35.365Z" fill="black"/>
<path d="M125.838 35.3647V28.0001H130.698C132.081 28.0001 133.202 29.1212 133.202 30.5041V35.3647H125.838Z" fill="black"/>
<path d="M63.7662 35.3651H56.4019V42.7297H63.7662V35.3651Z" fill="black"/>
<path d="M77.439 42.7298H70.0746V37.8692C70.0746 36.4863 71.1956 35.3653 72.5785 35.3653H77.439V42.7298Z" fill="black"/>
<path d="M77.4424 42.7298V35.3653H82.3029C83.6857 35.3653 84.8068 36.4863 84.8068 37.8692V42.7298H77.4424Z" fill="black"/>
<path d="M98.4814 35.3652V40.2258C98.4814 41.6087 97.3604 42.7297 95.9776 42.7297H93.621C92.2381 42.7297 91.1171 41.6087 91.1171 40.2258V35.3652H98.4814Z" fill="black"/>
<path d="M112.158 35.3652V40.2258C112.158 41.6087 111.037 42.7298 109.654 42.7298H107.297C105.914 42.7298 104.793 41.6087 104.793 40.2258V35.3652H112.158Z" fill="black"/>
<path d="M125.837 35.3652V42.7297H120.976C119.594 42.7297 118.473 41.6087 118.473 40.2258V35.3652H125.837Z" fill="black"/>
<path d="M133.202 35.3651H125.838V42.7297H133.202V35.3651Z" fill="black"/>
<path d="M133.203 42.7298V35.3653H138.063C139.446 35.3653 140.567 36.4863 140.567 37.8692V42.7298H133.203Z" fill="black"/>
<path d="M63.7617 42.7299V47.5906C63.7617 48.9734 62.6407 50.0945 61.2578 50.0945H58.9012C57.5184 50.0945 56.3974 48.9734 56.3974 47.5906V42.7299H63.7617Z" fill="black"/>
<path d="M67.9746 48.9039V49.0419H70.0787V46.9377H69.9407C69.9407 48.0277 69.0577 48.9039 67.9746 48.9039Z" fill="black"/>
<path d="M77.4435 42.7298H70.0791V50.0944H77.4435V42.7298Z" fill="black"/>
<path d="M83.7563 44.8361V47.9955C83.7563 49.1591 84.698 50.0944 85.8605 50.0944H89.0166C90.1864 50.0944 91.1207 49.1517 91.1207 47.9881V44.8361C91.1134 43.6651 90.1717 42.7298 89.0093 42.7298H85.8605C84.698 42.7298 83.7563 43.6725 83.7563 44.8361Z" fill="black"/>
<path d="M98.4824 50.0944V45.2338C98.4824 43.8509 99.6034 42.7298 100.986 42.7298H103.343C104.726 42.7298 105.847 43.8509 105.847 45.2338V50.0944H98.4824Z" fill="black"/>
<path d="M110.062 48.9039V49.0418H112.166V46.9377H112.028C112.028 48.0277 111.145 48.9039 110.062 48.9039Z" fill="black"/>
<path d="M112.163 50.0944V45.2338C112.163 43.8509 113.284 42.7298 114.666 42.7298H117.023C118.406 42.7298 119.527 43.8509 119.527 45.2338V50.0944H112.163Z" fill="black"/>
<path d="M133.199 42.7303V47.5909C133.199 48.9738 132.078 50.0948 130.695 50.0948H128.339C126.956 50.0948 125.835 48.9738 125.835 47.5909V42.7303H133.199Z" fill="black"/>
<path d="M139.512 50.0944V45.2338C139.512 43.8509 140.633 42.7299 142.016 42.7299H144.373C145.756 42.7299 146.877 43.8509 146.877 45.2338V50.0944H139.512Z" fill="black"/>
<path d="M71.1299 56.4068H66.2694C64.8865 56.4068 63.7655 55.2858 63.7655 53.9029V51.5462C63.7655 50.1633 64.8865 49.0423 66.2694 49.0423H71.1299V56.4068Z" fill="black"/>
<path d="M77.4435 49.0423H70.0791V56.4068H77.4435V49.0423Z" fill="black"/>
<path d="M77.4424 56.4068V49.0423H82.3029C83.6857 49.0423 84.8068 50.1633 84.8068 51.5462V56.4068H77.4424Z" fill="black"/>
<path d="M96.3809 56.2687V56.4066H98.485V54.3025H98.347C98.347 55.3925 97.464 56.2687 96.3809 56.2687Z" fill="black"/>
<path d="M105.847 49.0423H98.4824V56.4068H105.847V49.0423Z" fill="black"/>
<path d="M112.162 49.0423H104.798V56.4068H112.162V49.0423Z" fill="black"/>
<path d="M112.163 49.0423H119.527V53.9029C119.527 55.2858 118.406 56.4068 117.023 56.4068H112.163V49.0423Z" fill="black"/>
<path d="M146.874 49.0419V53.9025C146.874 55.2854 145.753 56.4064 144.37 56.4064H142.013C140.63 56.4064 139.509 55.2854 139.509 53.9025V49.0419H146.874Z" fill="black"/>
<path d="M21.6841 58.5129V61.6723C21.6841 62.8359 22.6258 63.7712 23.7882 63.7712H26.9443C28.1141 63.7712 29.0484 62.8285 29.0484 61.6649V58.5129C29.0411 57.3419 28.0994 56.4066 26.937 56.4066H23.7882C22.6258 56.4066 21.6841 57.3493 21.6841 58.5129Z" fill="black"/>
<path d="M42.7246 58.5129V61.6723C42.7246 62.8359 43.6663 63.7712 44.8287 63.7712H47.9849C49.1546 63.7712 50.089 62.8285 50.089 61.6649V58.5129C50.0816 57.3419 49.1399 56.4066 47.9775 56.4066H44.8287C43.6663 56.4066 42.7246 57.3493 42.7246 58.5129Z" fill="black"/>
<path d="M77.439 56.4069V61.2675C77.439 62.6504 76.3179 63.7714 74.9351 63.7714H72.5785C71.1956 63.7714 70.0746 62.6504 70.0746 61.2675V56.4069H77.439Z" fill="black"/>
<path d="M98.4814 63.7712H93.621C92.2381 63.7712 91.1171 62.6501 91.1171 61.2672V58.9106C91.1171 57.5277 92.2381 56.4066 93.621 56.4066H98.4814V63.7712Z" fill="black"/>
<path d="M105.847 56.4066H98.4824V63.7712H105.847V56.4066Z" fill="black"/>
<path d="M118.474 63.7709V58.9103C118.474 57.5274 119.595 56.4064 120.978 56.4064H123.334C124.717 56.4064 125.838 57.5274 125.838 58.9103V63.7709H118.474Z" fill="black"/>
<path d="M133.203 63.7709V58.9103C133.203 57.5274 134.324 56.4064 135.707 56.4064H138.063C139.446 56.4064 140.567 57.5274 140.567 58.9103V63.7709H133.203Z" fill="black"/>
<path d="M167.917 63.7712H163.057C161.674 63.7712 160.553 62.6502 160.553 61.2673V58.9106C160.553 57.5277 161.674 56.4067 163.057 56.4067H167.917V63.7712Z" fill="black"/>
<path d="M175.284 56.4066H167.919V63.7712H175.284V56.4066Z" fill="black"/>
<path d="M174.232 63.7709V56.4064H179.092C180.475 56.4064 181.596 57.5274 181.596 58.9103V63.7709H174.232Z" fill="black"/>
<path d="M196.326 63.7707H191.465C190.082 63.7707 188.961 62.6496 188.961 61.2667V58.9101C188.961 57.5272 190.082 56.4061 191.465 56.4061H196.326V63.7707Z" fill="black"/>
<path d="M195.273 63.7709V56.4064H200.133C201.516 56.4064 202.637 57.5274 202.637 58.9103V63.7709H195.273Z" fill="black"/>
<path d="M8.00293 71.1361H3.14245C1.75959 71.1361 0.638562 70.015 0.638562 68.6321L0.638562 66.2755C0.638562 64.8926 1.75959 63.7715 3.14245 63.7715H8.00293L8.00293 71.1361Z" fill="black"/>
<path d="M15.3741 63.7713H8.00977V71.1358H15.3741V63.7713Z" fill="black"/>
<path d="M14.3208 71.1356V63.7711H19.1813C20.5641 63.7711 21.6852 64.8921 21.6852 66.275V71.1356H14.3208Z" fill="black"/>
<path d="M35.3584 71.1358H27.994V66.2752C27.994 64.8923 29.1151 63.7713 30.4979 63.7713H35.3584V71.1358Z" fill="black"/>
<path d="M35.3633 71.1356V63.7711H40.2238C41.6066 63.7711 42.7276 64.8921 42.7276 66.275V71.1356H35.3633Z" fill="black"/>
<path d="M46.9336 69.9456V70.0836H49.0377V67.9794H48.8997C48.8997 69.0695 48.0167 69.9456 46.9336 69.9456Z" fill="black"/>
<path d="M49.0386 71.1356V66.275C49.0386 64.8921 50.1596 63.7711 51.5425 63.7711H53.8991C55.2819 63.7711 56.4029 64.8921 56.4029 66.275V71.1356H49.0386Z" fill="black"/>
<path d="M63.7666 71.1356V66.275C63.7666 64.8921 64.8876 63.7711 66.2705 63.7711H68.6271C70.0099 63.7711 71.131 64.8921 71.131 66.275V71.1356H63.7666Z" fill="black"/>
<path d="M105.842 63.7713V68.6319C105.842 70.0148 104.721 71.1358 103.338 71.1358H100.982C99.5989 71.1358 98.4779 70.0148 98.4779 68.6319V63.7713H105.842Z" fill="black"/>
<path d="M117.422 69.9459V70.0838H119.526V67.9797H119.388C119.388 69.0697 118.505 69.9459 117.422 69.9459Z" fill="black"/>
<path d="M125.839 63.7713H118.475V71.1358H125.839V63.7713Z" fill="black"/>
<path d="M140.562 63.7713V71.1358H135.702C134.319 71.1358 133.198 70.0148 133.198 68.6319V63.7713H140.562Z" fill="black"/>
<path d="M146.877 63.7713H139.512V71.1358H146.877V63.7713Z" fill="black"/>
<path d="M154.246 63.7713H146.882V71.1358H154.246V63.7713Z" fill="black"/>
<path d="M153.187 71.1356V63.7711H158.047C159.43 63.7711 160.551 64.8921 160.551 66.275V71.1356H153.187Z" fill="black"/>
<path d="M181.593 63.7713V68.6319C181.593 70.0148 180.472 71.1358 179.089 71.1358H176.732C175.349 71.1358 174.228 70.0148 174.228 68.6319V63.7713H181.593Z" fill="black"/>
<path d="M202.633 63.7713V68.6319C202.633 70.0148 201.512 71.1358 200.129 71.1358H197.773C196.39 71.1358 195.269 70.0148 195.269 68.6319V63.7713H202.633Z" fill="black"/>
<path d="M21.6841 70.0839V74.9445C21.6841 76.3274 20.5631 77.4485 19.1802 77.4485H16.8236C15.4407 77.4485 14.3197 76.3274 14.3197 74.9445V70.0839H21.6841Z" fill="black"/>
<path d="M35.3584 70.0833V74.9439C35.3584 76.3268 34.2374 77.4479 32.8545 77.4479H30.4979C29.1151 77.4479 27.994 76.3268 27.994 74.9439V70.0833H35.3584Z" fill="black"/>
<path d="M50.0854 77.4483H45.225C43.8421 77.4483 42.7211 76.3273 42.7211 74.9444V72.5877C42.7211 71.2048 43.8421 70.0838 45.225 70.0838H50.0854V77.4483Z" fill="black"/>
<path d="M56.4029 70.0838H49.0386V77.4483H56.4029V70.0838Z" fill="black"/>
<path d="M71.1299 70.0839V74.9445C71.1299 76.3274 70.0089 77.4485 68.626 77.4485H66.2694C64.8865 77.4485 63.7655 76.3274 63.7655 74.9445V70.0839H71.1299Z" fill="black"/>
<path d="M83.7563 72.1901V75.3495C83.7563 76.5131 84.698 77.4483 85.8605 77.4483H89.0166C90.1864 77.4483 91.1207 76.5057 91.1207 75.3421V72.1901C91.1134 71.0191 90.1717 70.0838 89.0093 70.0838H85.8605C84.698 70.0838 83.7563 71.0265 83.7563 72.1901Z" fill="black"/>
<path d="M112.158 77.4486H107.297C105.914 77.4486 104.793 76.3275 104.793 74.9446V72.588C104.793 71.2051 105.914 70.084 107.297 70.084H112.158V77.4486Z" fill="black"/>
<path d="M119.527 70.0838H112.163V77.4483H119.527V70.0838Z" fill="black"/>
<path d="M125.839 70.0838H118.475V77.4483H125.839V70.0838Z" fill="black"/>
<path d="M125.838 77.4482V70.0837H130.698C132.081 70.0837 133.202 71.2047 133.202 72.5876V77.4482H125.838Z" fill="black"/>
<path d="M146.874 70.0833V77.4479H142.013C140.63 77.4479 139.509 76.3268 139.509 74.9439V70.0833H146.874Z" fill="black"/>
<path d="M154.246 70.0838H146.882V77.4483H154.246V70.0838Z" fill="black"/>
<path d="M160.551 70.0838H153.187V77.4483H160.551V70.0838Z" fill="black"/>
<path d="M167.922 70.0838H160.558V77.4483H167.922V70.0838Z" fill="black"/>
<path d="M167.919 77.4482V70.0837H172.78C174.163 70.0837 175.284 71.2047 175.284 72.5876V77.4482H167.919Z" fill="black"/>
<path d="M188.956 77.4483H181.592V72.5877C181.592 71.2048 182.713 70.0838 184.096 70.0838H188.956V77.4483Z" fill="black"/>
<path d="M188.964 77.4482V70.0837H193.825C195.208 70.0837 196.329 71.2047 196.329 72.5876V77.4482H188.964Z" fill="black"/>
<path d="M56.4029 77.4485H49.0386V84.813H56.4029V77.4485Z" fill="black"/>
<path d="M56.4019 84.813V77.4485H61.2623C62.6452 77.4485 63.7662 78.5696 63.7662 79.9524V84.813H56.4019Z" fill="black"/>
<path d="M77.4424 84.813V79.9524C77.4424 78.5695 78.5634 77.4484 79.9463 77.4484H82.3029C83.6857 77.4484 84.8068 78.5695 84.8068 79.9524V84.813H77.4424Z" fill="black"/>
<path d="M91.1201 84.813V79.9524C91.1201 78.5695 92.2411 77.4484 93.624 77.4484H95.9806C97.3635 77.4484 98.4845 78.5695 98.4845 79.9524V84.813H91.1201Z" fill="black"/>
<path d="M125.839 77.4485H118.475V84.813H125.839V77.4485Z" fill="black"/>
<path d="M160.551 77.4485H153.187V84.813H160.551V77.4485Z" fill="black"/>
<path d="M188.956 77.4481V84.8127H184.096C182.713 84.8127 181.592 83.6916 181.592 82.3087V77.4481H188.956Z" fill="black"/>
<path d="M188.964 77.4485H196.329V82.3091C196.329 83.692 195.208 84.813 193.825 84.813H188.964V77.4485Z" fill="black"/>
<path d="M8.00293 91.1258H0.638562L0.638562 86.2652C0.638562 84.8823 1.75959 83.7612 3.14245 83.7612H8.00293L8.00293 91.1258Z" fill="black"/>
<path d="M8.00977 91.1251V83.7605H12.8702C14.2531 83.7605 15.3741 84.8816 15.3741 86.2645V91.1251H8.00977Z" fill="black"/>
<path d="M26.9434 90.9874V91.1253H29.0475V89.0212H28.9095C28.9095 90.1112 28.0265 90.9874 26.9434 90.9874Z" fill="black"/>
<path d="M27.9976 91.1251V86.2645C27.9976 84.8816 29.1186 83.7606 30.5014 83.7606H32.858C34.2409 83.7606 35.3619 84.8816 35.3619 86.2645V91.1251H27.9976Z" fill="black"/>
<path d="M50.0854 91.1252H45.225C43.8421 91.1252 42.7211 90.0042 42.7211 88.6213V86.2646C42.7211 84.8817 43.8421 83.7607 45.225 83.7607H50.0854V91.1252Z" fill="black"/>
<path d="M56.4029 83.7607H49.0386V91.1253H56.4029V83.7607Z" fill="black"/>
<path d="M63.7662 83.7607H56.4019V91.1253H63.7662V83.7607Z" fill="black"/>
<path d="M84.8037 83.761V88.6216C84.8037 90.0044 83.6827 91.1255 82.2998 91.1255H79.9432C78.5604 91.1255 77.4393 90.0044 77.4393 88.6216V83.761H84.8037Z" fill="black"/>
<path d="M98.4845 83.7607H91.1201V91.1253H98.4845V83.7607Z" fill="black"/>
<path d="M98.4824 91.1251V83.7606H103.343C104.726 83.7606 105.847 84.8816 105.847 86.2645V91.1251H98.4824Z" fill="black"/>
<path d="M119.528 91.1251H114.667C113.284 91.1251 112.163 90.0041 112.163 88.6212V86.2645C112.163 84.8816 113.284 83.7606 114.667 83.7606H119.528V91.1251Z" fill="black"/>
<path d="M125.839 83.7607H118.475V91.1253H125.839V83.7607Z" fill="black"/>
<path d="M140.562 91.1251H133.198V86.2645C133.198 84.8816 134.319 83.7605 135.702 83.7605H140.562V91.1251Z" fill="black"/>
<path d="M139.512 91.1251V83.7605H144.373C145.756 83.7605 146.877 84.8816 146.877 86.2645V91.1251H139.512Z" fill="black"/>
<path d="M160.548 83.761V88.6216C160.548 90.0044 159.427 91.1255 158.044 91.1255H155.687C154.305 91.1255 153.183 90.0044 153.183 88.6216V83.761H160.548Z" fill="black"/>
<path d="M174.232 91.1251V86.2645C174.232 84.8816 175.353 83.7605 176.736 83.7605H179.092C180.475 83.7605 181.596 84.8816 181.596 86.2645V91.1251H174.232Z" fill="black"/>
<path d="M8.00841 91.1254H0.644043V98.49H8.00841V91.1254Z" fill="black"/>
<path d="M15.3741 91.1254H8.00977V98.49H15.3741V91.1254Z" fill="black"/>
<path d="M29.0454 98.4897H24.1849C22.8021 98.4897 21.681 97.3687 21.681 95.9858V93.6291C21.681 92.2462 22.8021 91.1252 24.1849 91.1252H29.0454V98.4897Z" fill="black"/>
<path d="M27.9976 91.1254H35.3619V95.986C35.3619 97.3689 34.2409 98.49 32.858 98.49H27.9976V91.1254Z" fill="black"/>
<path d="M56.4029 91.1254H49.0386V98.49H56.4029V91.1254Z" fill="black"/>
<path d="M63.7662 91.1254H56.4019V98.49H63.7662V91.1254Z" fill="black"/>
<path d="M63.7666 98.4897V91.1252H68.6271C70.0099 91.1252 71.131 92.2462 71.131 93.6291V98.4897H63.7666Z" fill="black"/>
<path d="M98.4845 91.1254H91.1201V98.49H98.4845V91.1254Z" fill="black"/>
<path d="M102.692 98.3518V98.4898H104.796V96.3856H104.658C104.658 97.4756 103.775 98.3518 102.692 98.3518Z" fill="black"/>
<path d="M104.798 98.4897V93.6291C104.798 92.2462 105.919 91.1252 107.302 91.1252H109.658C111.041 91.1252 112.162 92.2462 112.162 93.6291V98.4897H104.798Z" fill="black"/>
<path d="M117.422 98.3518V98.4898H119.526V96.3857H119.388C119.388 97.4757 118.505 98.3518 117.422 98.3518Z" fill="black"/>
<path d="M125.839 91.1254H118.475V98.49H125.839V91.1254Z" fill="black"/>
<path d="M140.562 91.1254V98.4899H135.702C134.319 98.4899 133.198 97.3689 133.198 95.986V91.1254H140.562Z" fill="black"/>
<path d="M146.877 91.1253H139.512V98.4899H146.877V91.1253Z" fill="black"/>
<path d="M146.882 98.4897V91.1252H151.742C153.125 91.1252 154.246 92.2462 154.246 93.6291V98.4897H146.882Z" fill="black"/>
<path d="M158.453 98.3518V98.4898H160.557V96.3856H160.419C160.419 97.4756 159.536 98.3518 158.453 98.3518Z" fill="black"/>
<path d="M160.558 98.4897V93.6291C160.558 92.2462 161.679 91.1252 163.062 91.1252H165.418C166.801 91.1252 167.922 92.2462 167.922 93.6291V98.4897H160.558Z" fill="black"/>
<path d="M181.593 91.1253V95.9859C181.593 97.3688 180.472 98.4899 179.089 98.4899H176.732C175.349 98.4899 174.228 97.3688 174.228 95.9859V91.1253H181.593Z" fill="black"/>
<path d="M188.964 98.4897V93.6291C188.964 92.2462 190.085 91.1252 191.468 91.1252H193.825C195.208 91.1252 196.329 92.2462 196.329 93.6291V98.4897H188.964Z" fill="black"/>
<path d="M8.00841 98.4902H0.644043V105.855H8.00841V98.4902Z" fill="black"/>
<path d="M15.3741 98.4902H8.00977V105.855H15.3741V98.4902Z" fill="black"/>
<path d="M14.3208 105.855V98.4903H19.1813C20.5641 98.4903 21.6852 99.6114 21.6852 100.994V105.855H14.3208Z" fill="black"/>
<path d="M33.2559 104.664V104.802H35.36V102.698H35.222C35.222 103.788 34.339 104.664 33.2559 104.664Z" fill="black"/>
<path d="M42.7231 105.855H35.3588V100.995C35.3588 99.6118 36.4798 98.4907 37.8627 98.4907H42.7231V105.855Z" fill="black"/>
<path d="M50.089 98.4902H42.7246V105.855H50.089V98.4902Z" fill="black"/>
<path d="M56.4029 98.4902H49.0386V105.855H56.4029V98.4902Z" fill="black"/>
<path d="M67.9746 104.664V104.802H70.0787V102.698H69.9407C69.9407 103.788 69.0577 104.664 67.9746 104.664Z" fill="black"/>
<path d="M70.0791 105.855V100.994C70.0791 99.6114 71.2001 98.4903 72.583 98.4903H74.9396C76.3224 98.4903 77.4435 99.6114 77.4435 100.994V105.855H70.0791Z" fill="black"/>
<path d="M98.4814 98.4904V105.855H93.621C92.2381 105.855 91.1171 104.734 91.1171 103.351V98.4904H98.4814Z" fill="black"/>
<path d="M105.847 98.4902H98.4824V105.855H105.847V98.4902Z" fill="black"/>
<path d="M112.162 98.4902H104.798V105.855H112.162V98.4902Z" fill="black"/>
<path d="M119.527 98.4902H112.163V105.855H119.527V98.4902Z" fill="black"/>
<path d="M118.475 98.4902H125.839V103.351C125.839 104.734 124.718 105.855 123.335 105.855H118.475V98.4902Z" fill="black"/>
<path d="M160.548 105.855H155.687C154.305 105.855 153.183 104.734 153.183 103.351V100.994C153.183 99.6115 154.305 98.4904 155.687 98.4904H160.548V105.855Z" fill="black"/>
<path d="M167.922 98.4902H160.558V105.855H167.922V98.4902Z" fill="black"/>
<path d="M196.326 98.4904V105.855H191.465C190.082 105.855 188.961 104.734 188.961 103.351V98.4904H196.326Z" fill="black"/>
<path d="M195.273 105.855V98.4903H200.133C201.516 98.4903 202.637 99.6113 202.637 100.994V105.855H195.273Z" fill="black"/>
<path d="M8.00841 104.802H0.644043V112.167H8.00841V104.802Z" fill="black"/>
<path d="M21.6852 104.802H14.3208V112.167H21.6852V104.802Z" fill="black"/>
<path d="M29.0484 104.802H21.6841V112.167H29.0484V104.802Z" fill="black"/>
<path d="M35.3619 104.803H27.9976V112.167H35.3619V104.803Z" fill="black"/>
<path d="M42.7276 104.802H35.3633V112.167H42.7276V104.802Z" fill="black"/>
<path d="M56.3979 104.802V109.663C56.3979 111.045 55.2769 112.167 53.8941 112.167H51.5375C50.1546 112.167 49.0336 111.045 49.0336 109.663V104.802H56.3979Z" fill="black"/>
<path d="M71.1299 112.167H63.7655V107.306C63.7655 105.924 64.8865 104.803 66.2694 104.803H71.1299V112.167Z" fill="black"/>
<path d="M77.4435 104.802H70.0791V112.167H77.4435V104.802Z" fill="black"/>
<path d="M125.838 106.909V110.068C125.838 111.232 126.78 112.167 127.942 112.167H131.098C132.268 112.167 133.202 111.224 133.202 110.061V106.909C133.195 105.738 132.253 104.803 131.091 104.803H127.942C126.78 104.803 125.838 105.745 125.838 106.909Z" fill="black"/>
<path d="M139.512 106.909V110.068C139.512 111.232 140.454 112.167 141.616 112.167H144.772C145.942 112.167 146.877 111.224 146.877 110.061V106.909C146.869 105.738 145.928 104.803 144.765 104.803H141.616C140.454 104.803 139.512 105.745 139.512 106.909Z" fill="black"/>
<path d="M167.917 104.803V112.167H163.057C161.674 112.167 160.553 111.046 160.553 109.663V104.803H167.917Z" fill="black"/>
<path d="M167.919 112.167V104.802H172.78C174.163 104.802 175.284 105.923 175.284 107.306V112.167H167.919Z" fill="black"/>
<path d="M202.633 104.802V109.663C202.633 111.045 201.512 112.166 200.129 112.166H197.773C196.39 112.166 195.269 111.045 195.269 109.663V104.802H202.633Z" fill="black"/>
<path d="M8.00293 112.167V117.027C8.00293 118.41 6.8819 119.531 5.49904 119.531H3.14245C1.75959 119.531 0.638562 118.41 0.638562 117.027V112.167H8.00293Z" fill="black"/>
<path d="M21.6841 112.166V117.027C21.6841 118.41 20.5631 119.531 19.1802 119.531H16.8236C15.4407 119.531 14.3197 118.41 14.3197 117.027V112.166H21.6841Z" fill="black"/>
<path d="M35.3619 112.167H27.9976V119.532H35.3619V112.167Z" fill="black"/>
<path d="M42.7276 112.166H35.3633V119.531H42.7276V112.166Z" fill="black"/>
<path d="M42.7246 119.531V112.166H47.5851C48.9679 112.166 50.089 113.287 50.089 114.67V119.531H42.7246Z" fill="black"/>
<path d="M61.6616 119.394V119.532H63.7657V117.427H63.6278C63.6278 118.518 62.7447 119.394 61.6616 119.394Z" fill="black"/>
<path d="M71.131 112.166H63.7666V119.531H71.131V112.166Z" fill="black"/>
<path d="M77.4435 112.166H70.0791V119.531H77.4435V112.166Z" fill="black"/>
<path d="M89.0166 119.394V119.532H91.1207V117.427H90.9827C90.9827 118.518 90.0997 119.394 89.0166 119.394Z" fill="black"/>
<path d="M98.4814 119.531H91.1171V114.67C91.1171 113.287 92.2381 112.166 93.621 112.166H98.4814V119.531Z" fill="black"/>
<path d="M105.847 112.166H98.4824V119.531H105.847V112.166Z" fill="black"/>
<path d="M104.798 119.531V112.166H109.658C111.041 112.166 112.162 113.287 112.162 114.67V119.531H104.798Z" fill="black"/>
<path d="M118.475 119.531V114.67C118.475 113.288 119.596 112.167 120.978 112.167H123.335C124.718 112.167 125.839 113.288 125.839 114.67V119.531H118.475Z" fill="black"/>
<path d="M186.861 119.394V119.532H188.965V117.427H188.827C188.827 118.518 187.944 119.394 186.861 119.394Z" fill="black"/>
<path d="M188.964 119.531V114.67C188.964 113.287 190.085 112.166 191.468 112.166H193.825C195.208 112.166 196.329 113.287 196.329 114.67V119.531H188.964Z" fill="black"/>
<path d="M8.00977 120.585V123.745C8.00977 124.908 8.95146 125.844 10.1139 125.844H13.27C14.4398 125.844 15.3741 124.901 15.3741 123.737V120.585C15.3668 119.414 14.4251 118.479 13.2627 118.479H10.1139C8.95146 118.479 8.00977 119.422 8.00977 120.585Z" fill="black"/>
<path d="M26.9434 125.706V125.844H29.0475V123.74H28.9095C28.9095 124.83 28.0265 125.706 26.9434 125.706Z" fill="black"/>
<path d="M35.3619 118.479H27.9976V125.843H35.3619V118.479Z" fill="black"/>
<path d="M42.7276 118.48H35.3633V125.844H42.7276V118.48Z" fill="black"/>
<path d="M46.9336 125.706V125.844H49.0377V123.74H48.8997C48.8997 124.83 48.0167 125.706 46.9336 125.706Z" fill="black"/>
<path d="M56.3979 125.844H49.0336V120.983C49.0336 119.601 50.1546 118.479 51.5375 118.479H56.3979V125.844Z" fill="black"/>
<path d="M63.7662 118.48H56.4019V125.844H63.7662V118.48Z" fill="black"/>
<path d="M71.131 118.48H63.7666V125.844H71.131V118.48Z" fill="black"/>
<path d="M77.4435 118.48H70.0791V125.844H77.4435V118.48Z" fill="black"/>
<path d="M84.8068 118.48H77.4424V125.844H84.8068V118.48Z" fill="black"/>
<path d="M91.1207 118.479H83.7563V125.843H91.1207V118.479Z" fill="black"/>
<path d="M98.4845 118.48H91.1201V125.844H98.4845V118.48Z" fill="black"/>
<path d="M98.4824 118.48H105.847V123.34C105.847 124.723 104.726 125.844 103.343 125.844H98.4824V118.48Z" fill="black"/>
<path d="M125.837 118.48V125.844H120.976C119.594 125.844 118.473 124.723 118.473 123.34V118.48H125.837Z" fill="black"/>
<path d="M133.202 118.48H125.838V125.844H133.202V118.48Z" fill="black"/>
<path d="M140.567 118.48H133.203V125.844H140.567V118.48Z" fill="black"/>
<path d="M146.877 118.48H139.512V125.844H146.877V118.48Z" fill="black"/>
<path d="M146.882 125.844V118.479H151.742C153.125 118.479 154.246 119.601 154.246 120.983V125.844H146.882Z" fill="black"/>
<path d="M160.558 125.844V120.983C160.558 119.601 161.679 118.479 163.062 118.479H165.418C166.801 118.479 167.922 119.601 167.922 120.983V125.844H160.558Z" fill="black"/>
<path d="M181.593 125.844H176.732C175.349 125.844 174.228 124.723 174.228 123.34V120.983C174.228 119.601 175.349 118.479 176.732 118.479H181.593V125.844Z" fill="black"/>
<path d="M188.958 118.48H181.594V125.844H188.958V118.48Z" fill="black"/>
<path d="M196.329 118.48H188.964V125.844H196.329V118.48Z" fill="black"/>
<path d="M195.273 125.844V118.479H200.133C201.516 118.479 202.637 119.601 202.637 120.983V125.844H195.273Z" fill="black"/>
<path d="M0.644043 127.95V131.11C0.644043 132.273 1.58574 133.209 2.74815 133.209H5.90431C7.07407 133.209 8.00841 132.266 8.00841 131.102V127.95C8.00105 126.779 7.05936 125.844 5.89695 125.844H2.74815C1.58574 125.844 0.644043 126.787 0.644043 127.95Z" fill="black"/>
<path d="M21.6841 133.208H16.8236C15.4407 133.208 14.3197 132.087 14.3197 130.704V128.348C14.3197 126.965 15.4407 125.844 16.8236 125.844H21.6841V133.208Z" fill="black"/>
<path d="M29.0484 125.844H21.6841V133.209H29.0484V125.844Z" fill="black"/>
<path d="M35.3619 125.844H27.9976V133.208H35.3619V125.844Z" fill="black"/>
<path d="M42.7276 125.844H35.3633V133.209H42.7276V125.844Z" fill="black"/>
<path d="M50.089 125.844H42.7246V133.209H50.089V125.844Z" fill="black"/>
<path d="M49.0386 125.844H56.4029V130.705C56.4029 132.088 55.2819 133.209 53.8991 133.209H49.0386V125.844Z" fill="black"/>
<path d="M104.798 127.95V131.109C104.798 132.273 105.74 133.208 106.902 133.208H110.058C111.228 133.208 112.162 132.266 112.162 131.102V127.95C112.155 126.779 111.213 125.844 110.051 125.844H106.902C105.74 125.844 104.798 126.786 104.798 127.95Z" fill="black"/>
<path d="M154.242 125.844V130.705C154.242 132.088 153.121 133.209 151.738 133.209H149.382C147.999 133.209 146.878 132.088 146.878 130.705V125.844H154.242Z" fill="black"/>
<path d="M167.922 125.844H160.558V133.208H167.922V125.844Z" fill="black"/>
<path d="M196.326 125.844V133.209H191.465C190.082 133.209 188.961 132.088 188.961 130.705V125.844H196.326Z" fill="black"/>
<path d="M195.273 125.844H202.637V130.705C202.637 132.088 201.516 133.209 200.133 133.209H195.273V125.844Z" fill="black"/>
<path d="M29.0484 133.209H21.6841V140.573H29.0484V133.209Z" fill="black"/>
<path d="M98.4814 140.573H93.621C92.2381 140.573 91.1171 139.452 91.1171 138.07V135.713C91.1171 134.33 92.2381 133.209 93.621 133.209H98.4814V140.573Z" fill="black"/>
<path d="M98.4824 140.573V133.208H103.343C104.726 133.208 105.847 134.329 105.847 135.712V140.573H98.4824Z" fill="black"/>
<path d="M119.528 140.574H112.163V135.713C112.163 134.33 113.284 133.209 114.667 133.209H119.528V140.574Z" fill="black"/>
<path d="M125.839 133.208H118.475V140.573H125.839V133.208Z" fill="black"/>
<path d="M125.838 140.573V133.209H130.698C132.081 133.209 133.202 134.33 133.202 135.713V140.573H125.838Z" fill="black"/>
<path d="M158.453 139.382V139.52H160.557V137.416H160.419C160.419 138.506 159.536 139.382 158.453 139.382Z" fill="black"/>
<path d="M167.922 133.208H160.558V140.573H167.922V133.208Z" fill="black"/>
<path d="M175.284 133.208H167.919V140.573H175.284V133.208Z" fill="black"/>
<path d="M174.232 140.573V133.209H179.092C180.475 133.209 181.596 134.33 181.596 135.713V140.573H174.232Z" fill="black"/>
<path d="M0.644043 141.627V144.787C0.644043 145.95 1.58574 146.885 2.74815 146.885H5.90431C7.07407 146.885 8.00841 145.943 8.00841 144.779V141.627C8.00105 140.456 7.05936 139.521 5.89695 139.521H2.74815C1.58574 139.521 0.644043 140.464 0.644043 141.627Z" fill="black"/>
<path d="M21.6841 146.885H16.8236C15.4407 146.885 14.3197 145.764 14.3197 144.381V142.024C14.3197 140.641 15.4407 139.52 16.8236 139.52H21.6841V146.885Z" fill="black"/>
<path d="M29.0484 139.521H21.6841V146.885H29.0484V139.521Z" fill="black"/>
<path d="M35.3619 139.521H27.9976V146.885H35.3619V139.521Z" fill="black"/>
<path d="M42.7276 139.521H35.3633V146.885H42.7276V139.521Z" fill="black"/>
<path d="M50.089 139.521H42.7246V146.885H50.089V139.521Z" fill="black"/>
<path d="M56.4029 139.521H49.0386V146.885H56.4029V139.521Z" fill="black"/>
<path d="M63.7662 139.521H56.4019V146.885H63.7662V139.521Z" fill="black"/>
<path d="M63.7666 146.885V139.521H68.6271C70.0099 139.521 71.131 140.642 71.131 142.025V146.885H63.7666Z" fill="black"/>
<path d="M84.8042 146.885H77.4398V142.025C77.4398 140.642 78.5609 139.521 79.9437 139.521H84.8042V146.885Z" fill="black"/>
<path d="M83.7563 146.885V139.521H88.6168C89.9997 139.521 91.1207 140.642 91.1207 142.025V146.885H83.7563Z" fill="black"/>
<path d="M119.528 139.521V146.885H114.667C113.284 146.885 112.163 145.764 112.163 144.381V139.521H119.528Z" fill="black"/>
<path d="M125.839 139.521H118.475V146.885H125.839V139.521Z" fill="black"/>
<path d="M125.838 139.521H133.202V144.381C133.202 145.764 132.081 146.885 130.698 146.885H125.838V139.521Z" fill="black"/>
<path d="M137.408 146.748V146.886H139.512V144.781H139.374C139.374 145.872 138.491 146.748 137.408 146.748Z" fill="black"/>
<path d="M146.874 146.886H139.509V142.025C139.509 140.642 140.63 139.521 142.013 139.521H146.874V146.886Z" fill="black"/>
<path d="M154.246 139.521H146.882V146.885H154.246V139.521Z" fill="black"/>
<path d="M160.551 139.521H153.187V146.885H160.551V139.521Z" fill="black"/>
<path d="M167.922 139.521H160.558V146.885H167.922V139.521Z" fill="black"/>
<path d="M175.284 139.521H167.919V146.885H175.284V139.521Z" fill="black"/>
<path d="M181.594 141.627V144.787C181.594 145.95 182.535 146.885 183.698 146.885H186.854C188.024 146.885 188.958 145.943 188.958 144.779V141.627C188.951 140.456 188.009 139.521 186.847 139.521H183.698C182.535 139.521 181.594 140.464 181.594 141.627Z" fill="black"/>
<path d="M195.273 146.885V142.024C195.273 140.641 196.394 139.52 197.777 139.52H200.133C201.516 139.52 202.637 140.641 202.637 142.024V146.885H195.273Z" fill="black"/>
<path d="M63.7617 146.885V154.25H58.9012C57.5184 154.25 56.3974 153.129 56.3974 151.746V146.885H63.7617Z" fill="black"/>
<path d="M71.131 146.885H63.7666V154.25H71.131V146.885Z" fill="black"/>
<path d="M75.3394 154.112V154.25H77.4435V152.146H77.3055C77.3055 153.236 76.4225 154.112 75.3394 154.112Z" fill="black"/>
<path d="M84.8068 146.885H77.4424V154.25H84.8068V146.885Z" fill="black"/>
<path d="M83.7563 146.885H91.1207V151.746C91.1207 153.129 89.9997 154.25 88.6168 154.25H83.7563V146.885Z" fill="black"/>
<path d="M105.842 154.25H100.982C99.5989 154.25 98.4779 153.129 98.4779 151.746V149.389C98.4779 148.006 99.5989 146.885 100.982 146.885H105.842V154.25Z" fill="black"/>
<path d="M104.798 154.25V146.885H109.658C111.041 146.885 112.162 148.006 112.162 149.389V154.25H104.798Z" fill="black"/>
<path d="M140.562 154.25H135.702C134.319 154.25 133.198 153.129 133.198 151.746V149.389C133.198 148.006 134.319 146.885 135.702 146.885H140.562V154.25Z" fill="black"/>
<path d="M146.877 146.885H139.512V154.25H146.877V146.885Z" fill="black"/>
<path d="M175.284 146.885H167.919V154.25H175.284V146.885Z" fill="black"/>
<path d="M202.633 146.885V151.746C202.633 153.129 201.512 154.25 200.129 154.25H197.773C196.39 154.25 195.269 153.129 195.269 151.746V146.885H202.633Z" fill="black"/>
<path d="M71.131 154.25H63.7666V161.615H71.131V154.25Z" fill="black"/>
<path d="M77.4435 154.25H70.0791V161.615H77.4435V154.25Z" fill="black"/>
<path d="M77.4424 154.25H84.8068V159.111C84.8068 160.494 83.6857 161.615 82.3029 161.615H77.4424V154.25Z" fill="black"/>
<path d="M146.877 154.25H139.512V161.615H146.877V154.25Z" fill="black"/>
<path d="M153.187 156.356V159.516C153.187 160.679 154.129 161.615 155.291 161.615H158.447C159.617 161.615 160.551 160.672 160.551 159.508V156.356C160.544 155.185 159.602 154.25 158.44 154.25H155.291C154.129 154.25 153.187 155.193 153.187 156.356Z" fill="black"/>
<path d="M175.284 154.25H167.919V161.615H175.284V154.25Z" fill="black"/>
<path d="M181.596 154.25H174.232V161.615H181.596V154.25Z" fill="black"/>
<path d="M188.958 154.25H181.594V161.615H188.958V154.25Z" fill="black"/>
<path d="M188.964 161.615V154.25H193.825C195.208 154.25 196.329 155.371 196.329 156.754V161.615H188.964Z" fill="black"/>
<path d="M71.131 160.562H63.7666V167.927H71.131V160.562Z" fill="black"/>
<path d="M98.4814 167.927H91.1171V163.067C91.1171 161.684 92.2381 160.563 93.621 160.563H98.4814V167.927Z" fill="black"/>
<path d="M98.4824 167.927V160.562H103.343C104.726 160.562 105.847 161.683 105.847 163.066V167.927H98.4824Z" fill="black"/>
<path d="M117.422 167.789V167.927H119.526V165.823H119.388C119.388 166.913 118.505 167.789 117.422 167.789Z" fill="black"/>
<path d="M118.475 167.927V163.066C118.475 161.683 119.596 160.562 120.978 160.562H123.335C124.718 160.562 125.839 161.683 125.839 163.066V167.927H118.475Z" fill="black"/>
<path d="M140.562 167.927H135.702C134.319 167.927 133.198 166.806 133.198 165.424V163.067C133.198 161.684 134.319 160.563 135.702 160.563H140.562V167.927Z" fill="black"/>
<path d="M146.877 160.562H139.512V167.927H146.877V160.562Z" fill="black"/>
<path d="M165.815 167.789V167.927H167.92V165.823H167.782C167.782 166.913 166.899 167.789 165.815 167.789Z" fill="black"/>
<path d="M175.284 160.562H167.919V167.927H175.284V160.562Z" fill="black"/>
<path d="M188.956 160.562V165.423C188.956 166.806 187.835 167.927 186.452 167.927H184.096C182.713 167.927 181.592 166.806 181.592 165.423V160.562H188.956Z" fill="black"/>
<path d="M195.273 162.669V165.828C195.273 166.992 196.215 167.927 197.377 167.927H200.533C201.703 167.927 202.637 166.984 202.637 165.821V162.669C202.63 161.498 201.688 160.562 200.526 160.562H197.377C196.215 160.562 195.273 161.505 195.273 162.669Z" fill="black"/>
<path d="M61.6616 174.101V174.239H63.7657V172.135H63.6278C63.6278 173.225 62.7447 174.101 61.6616 174.101Z" fill="black"/>
<path d="M71.131 167.927H63.7666V175.291H71.131V167.927Z" fill="black"/>
<path d="M98.4845 167.927H91.1201V175.291H98.4845V167.927Z" fill="black"/>
<path d="M119.528 175.292H114.667C113.284 175.292 112.163 174.171 112.163 172.788V170.431C112.163 169.049 113.284 167.927 114.667 167.927H119.528V175.292Z" fill="black"/>
<path d="M125.839 167.927H118.475V175.291H125.839V167.927Z" fill="black"/>
<path d="M125.837 175.291V167.926H130.697C132.08 167.926 133.201 169.048 133.201 170.43V175.291H125.837Z" fill="black"/>
<path d="M146.874 167.927V175.292H142.013C140.63 175.292 139.509 174.171 139.509 172.788V167.927H146.874Z" fill="black"/>
<path d="M154.246 167.927H146.882V175.291H154.246V167.927Z" fill="black"/>
<path d="M160.551 167.927H153.187V175.291H160.551V167.927Z" fill="black"/>
<path d="M167.922 167.927H160.558V175.291H167.922V167.927Z" fill="black"/>
<path d="M175.284 167.927H167.919V175.291H175.284V167.927Z" fill="black"/>
<path d="M174.232 175.291V167.926H179.092C180.475 167.926 181.596 169.048 181.596 170.43V175.291H174.232Z" fill="black"/>
<path d="M188.964 170.033V173.192C188.964 174.356 189.906 175.291 191.068 175.291H194.225C195.394 175.291 196.329 174.349 196.329 173.185V170.033C196.321 168.862 195.38 167.927 194.217 167.927H191.068C189.906 167.927 188.964 168.869 188.964 170.033Z" fill="black"/>
<path d="M63.7617 181.605H58.9012C57.5184 181.605 56.3974 180.483 56.3974 179.101V176.744C56.3974 175.361 57.5184 174.24 58.9012 174.24H63.7617V181.605Z" fill="black"/>
<path d="M71.131 174.239H63.7666V181.604H71.131V174.239Z" fill="black"/>
<path d="M70.0791 181.604V174.239H74.9396C76.3224 174.239 77.4435 175.36 77.4435 176.743V181.604H70.0791Z" fill="black"/>
<path d="M98.4814 174.24V181.604H93.621C92.2381 181.604 91.1171 180.483 91.1171 179.1V174.24H98.4814Z" fill="black"/>
<path d="M98.4824 181.604V174.239H103.343C104.726 174.239 105.847 175.36 105.847 176.743V181.604H98.4824Z" fill="black"/>
<path d="M125.839 174.239H118.475V181.604H125.839V174.239Z" fill="black"/>
<path d="M160.548 174.24V179.1C160.548 180.483 159.427 181.604 158.044 181.604H155.687C154.305 181.604 153.183 180.483 153.183 179.1V174.24H160.548Z" fill="black"/>
<path d="M175.284 174.239H167.919V181.604H175.284V174.239Z" fill="black"/>
<path d="M179.49 181.466V181.604H181.594V179.5H181.456C181.456 180.59 180.573 181.466 179.49 181.466Z" fill="black"/>
<path d="M181.594 181.604V176.743C181.594 175.36 182.715 174.239 184.098 174.239H186.454C187.837 174.239 188.958 175.36 188.958 176.743V181.604H181.594Z" fill="black"/>
<path d="M195.273 181.604V176.743C195.273 175.36 196.394 174.239 197.777 174.239H200.133C201.516 174.239 202.637 175.36 202.637 176.743V181.604H195.273Z" fill="black"/>
<path d="M77.439 181.604V186.465C77.439 187.848 76.3179 188.969 74.9351 188.969H72.5785C71.1956 188.969 70.0746 187.848 70.0746 186.465V181.604H77.439Z" fill="black"/>
<path d="M119.528 188.969H112.163V184.109C112.163 182.726 113.284 181.605 114.667 181.605H119.528V188.969Z" fill="black"/>
<path d="M118.475 181.604H125.839V186.465C125.839 187.847 124.718 188.968 123.335 188.968H118.475V181.604Z" fill="black"/>
<path d="M131.097 188.83V188.968H133.201V186.864H133.063C133.063 187.954 132.18 188.83 131.097 188.83Z" fill="black"/>
<path d="M133.203 188.968V184.108C133.203 182.725 134.324 181.604 135.707 181.604H138.063C139.446 181.604 140.567 182.725 140.567 184.108V188.968H133.203Z" fill="black"/>
<path d="M146.882 183.71V186.87C146.882 188.033 147.824 188.968 148.986 188.968H152.142C153.312 188.968 154.246 188.026 154.246 186.862V183.71C154.239 182.539 153.297 181.604 152.135 181.604H148.986C147.824 181.604 146.882 182.547 146.882 183.71Z" fill="black"/>
<path d="M158.453 188.83V188.968H160.557V186.864H160.419C160.419 187.954 159.536 188.83 158.453 188.83Z" fill="black"/>
<path d="M167.917 188.969H160.553V184.109C160.553 182.726 161.674 181.605 163.057 181.605H167.917V188.969Z" fill="black"/>
<path d="M175.284 181.604H167.919V188.968H175.284V181.604Z" fill="black"/>
<path d="M181.596 181.604H174.232V188.968H181.596V181.604Z" fill="black"/>
<path d="M181.594 181.604H188.958V186.465C188.958 187.847 187.837 188.968 186.454 188.968H181.594V181.604Z" fill="black"/>
<path d="M202.633 181.604V186.465C202.633 187.848 201.512 188.969 200.129 188.969H197.773C196.39 188.969 195.269 187.848 195.269 186.465V181.604H202.633Z" fill="black"/>
<path d="M63.7666 191.074V194.234C63.7666 195.397 64.7083 196.333 65.8707 196.333H69.0269C70.1966 196.333 71.131 195.39 71.131 194.226V191.074C71.1236 189.903 70.1819 188.968 69.0195 188.968H65.8707C64.7083 188.968 63.7666 189.911 63.7666 191.074Z" fill="black"/>
<path d="M110.062 195.143V195.281H112.166V193.177H112.028C112.028 194.267 111.145 195.143 110.062 195.143Z" fill="black"/>
<path d="M119.527 188.968H112.163V196.333H119.527V188.968Z" fill="black"/>
<path d="M123.732 195.143V195.281H125.836V193.177H125.698C125.698 194.267 124.815 195.143 123.732 195.143Z" fill="black"/>
<path d="M133.199 196.333H125.835V191.472C125.835 190.089 126.956 188.968 128.339 188.968H133.199V196.333Z" fill="black"/>
<path d="M133.203 188.968H140.567V193.829C140.567 195.211 139.446 196.333 138.063 196.333H133.203V188.968Z" fill="black"/>
<path d="M160.548 196.333H153.183V191.473C153.183 190.09 154.305 188.969 155.687 188.969H160.548V196.333Z" fill="black"/>
<path d="M160.558 188.968H167.922V193.829C167.922 195.211 166.801 196.333 165.418 196.333H160.558V188.968Z" fill="black"/>
<path d="M188.964 196.333V191.472C188.964 190.089 190.085 188.968 191.468 188.968H193.825C195.208 188.968 196.329 190.089 196.329 191.472V196.333H188.964Z" fill="black"/>
<path d="M83.7563 197.387V200.547C83.7563 201.71 84.698 202.645 85.8605 202.645H89.0166C90.1864 202.645 91.1207 201.703 91.1207 200.539V197.387C91.1134 196.216 90.1717 195.281 89.0093 195.281H85.8605C84.698 195.281 83.7563 196.224 83.7563 197.387Z" fill="black"/>
<path d="M112.158 202.646H107.297C105.914 202.646 104.793 201.525 104.793 200.142V197.785C104.793 196.402 105.914 195.281 107.297 195.281H112.158V202.646Z" fill="black"/>
<path d="M119.527 195.281H112.163V202.645H119.527V195.281Z" fill="black"/>
<path d="M125.839 195.281H118.475V202.645H125.839V195.281Z" fill="black"/>
<path d="M125.838 195.281H133.202V200.141C133.202 201.524 132.081 202.645 130.698 202.645H125.838V195.281Z" fill="black"/>
<path d="M160.548 195.281V200.142C160.548 201.525 159.427 202.646 158.044 202.646H155.687C154.305 202.646 153.183 201.525 153.183 200.142V195.281H160.548Z" fill="black"/>
<path d="M175.28 202.646H170.42C169.037 202.646 167.916 201.525 167.916 200.142V197.786C167.916 196.403 169.037 195.282 170.42 195.282H175.28V202.646Z" fill="black"/>
<path d="M174.232 202.645V195.281H179.092C180.475 195.281 181.596 196.402 181.596 197.785V202.645H174.232Z" fill="black"/>
<path d="M196.326 195.281V200.142C196.326 201.525 195.205 202.646 193.822 202.646H191.465C190.082 202.646 188.961 201.525 188.961 200.142V195.281H196.326Z" fill="black"/>
<path fill-rule="evenodd" clip-rule="evenodd" d="M43.9276 33.6392V18.1523C43.9276 11.2781 42.9925 9.60083 42.5904 9.19774C42.1873 8.79555 40.51 7.86042 33.6351 7.86042H18.1495C11.2746 7.86042 9.59738 8.79555 9.1952 9.19774C8.79302 9.60083 7.85701 11.2781 7.85701 18.1523V33.6392C7.85701 40.5142 8.79302 42.1915 9.1952 42.5946C9.59738 42.9959 11.2746 43.9319 18.1495 43.9319H33.6351C40.51 43.9319 42.1873 42.9959 42.5904 42.5946C42.9925 42.1915 43.9276 40.5142 43.9276 33.6392ZM33.6351 0.646301C47.7754 0.646301 51.1416 4.01259 51.1416 18.1523C51.1416 32.2928 51.1416 19.4995 51.1416 33.6392C51.1416 47.7798 47.7754 51.146 33.6351 51.146C19.4958 51.146 32.2888 51.146 18.1495 51.146C4.00927 51.146 0.643066 47.7798 0.643066 33.6392C0.643066 19.4995 0.643066 26.049 0.643066 18.1523C0.643066 4.01259 4.00927 0.646301 18.1495 0.646301C32.2888 0.646301 19.4958 0.646301 33.6351 0.646301ZM29.2106 15.0748C35.2709 15.0748 36.7134 16.5183 36.7134 22.577C36.7134 28.6375 36.7134 23.1549 36.7134 29.2145C36.7134 35.2741 35.2709 36.7175 29.2106 36.7175C23.1511 36.7175 28.6336 36.7175 22.5741 36.7175C16.5146 36.7175 15.0712 35.2741 15.0712 29.2145C15.0712 23.1549 15.0712 25.9615 15.0712 22.577C15.0712 16.5183 16.5146 15.0748 22.5741 15.0748C28.6336 15.0748 23.1511 15.0748 29.2106 15.0748Z" fill="black"/>
<path fill-rule="evenodd" clip-rule="evenodd" d="M195.425 33.6392V18.1523C195.425 11.2781 194.49 9.60083 194.087 9.19774C193.684 8.79555 192.007 7.86042 185.132 7.86042H169.647C162.772 7.86042 161.094 8.79555 160.692 9.19774C160.29 9.60083 159.354 11.2781 159.354 18.1523V33.6392C159.354 40.5142 160.29 42.1915 160.692 42.5946C161.094 42.9959 162.772 43.9319 169.647 43.9319H185.132C192.007 43.9319 193.684 42.9959 194.087 42.5946C194.49 42.1915 195.425 40.5142 195.425 33.6392ZM185.132 0.646301C199.272 0.646301 202.639 4.01259 202.639 18.1523C202.639 32.2928 202.639 19.4995 202.639 33.6392C202.639 47.7798 199.272 51.146 185.132 51.146C170.993 51.146 183.786 51.146 169.647 51.146C155.506 51.146 152.14 47.7798 152.14 33.6392C152.14 19.4995 152.14 26.049 152.14 18.1523C152.14 4.01259 155.506 0.646301 169.647 0.646301C183.786 0.646301 170.993 0.646301 185.132 0.646301ZM180.708 15.0748C186.768 15.0748 188.211 16.5183 188.211 22.577C188.211 28.6375 188.211 23.1549 188.211 29.2145C188.211 35.2741 186.768 36.7175 180.708 36.7175C174.648 36.7175 180.131 36.7175 174.071 36.7175C168.012 36.7175 166.568 35.2741 166.568 29.2145C166.568 23.1549 166.568 25.9615 166.568 22.577C166.568 16.5183 168.012 15.0748 174.071 15.0748C180.131 15.0748 174.648 15.0748 180.708 15.0748Z" fill="black"/>
<path fill-rule="evenodd" clip-rule="evenodd" d="M43.9286 185.138V169.651C43.9286 162.777 42.9935 161.1 42.5913 160.697C42.1883 160.295 40.511 159.36 33.6361 159.36H18.1505C11.2756 159.36 9.59835 160.295 9.19618 160.697C8.794 161.1 7.85799 162.777 7.85799 169.651V185.138C7.85799 192.013 8.794 193.691 9.19618 194.094C9.59835 194.495 11.2756 195.431 18.1505 195.431H33.6361C40.511 195.431 42.1883 194.495 42.5913 194.094C42.9935 193.691 43.9286 192.013 43.9286 185.138ZM33.6361 152.145C47.7764 152.145 51.1426 155.512 51.1426 169.651C51.1426 183.792 51.1426 170.999 51.1426 185.138C51.1426 199.279 47.7764 202.645 33.6361 202.645C19.4968 202.645 32.2898 202.645 18.1505 202.645C4.01025 202.645 0.644043 199.279 0.644043 185.138C0.644043 170.999 0.644043 177.548 0.644043 169.651C0.644043 155.512 4.01025 152.145 18.1505 152.145C32.2898 152.145 19.4968 152.145 33.6361 152.145ZM29.2115 166.574C35.2719 166.574 36.7144 168.017 36.7144 174.076C36.7144 180.137 36.7144 174.654 36.7144 180.714C36.7144 186.773 35.2719 188.217 29.2115 188.217C23.1521 188.217 28.6345 188.217 22.5751 188.217C16.5156 188.217 15.0722 186.773 15.0722 180.714C15.0722 174.654 15.0722 177.461 15.0722 174.076C15.0722 168.017 16.5156 166.574 22.5751 166.574C28.6345 166.574 23.1521 166.574 29.2115 166.574Z" fill="black"/>
</svg>
