<svg width="60" height="60" viewBox="0 0 60 60" fill="none" xmlns="http://www.w3.org/2000/svg">
<rect width="60" height="60" rx="30" fill="#FF060A"/>
<path d="M47.3667 24.6646C45.6391 23.1289 43.2396 20.7894 41.296 19.1338L41.176 19.0618C40.9841 18.9178 40.7681 18.7978 40.5402 18.7138C35.8372 17.874 13.9539 13.9509 13.5339 13.9988C13.414 14.0108 13.294 14.0588 13.198 14.1188L13.09 14.2028C12.9581 14.3348 12.8501 14.4907 12.7901 14.6707L12.7661 14.7427V15.1386V15.1986C15.2256 21.7732 24.9555 43.2966 26.8751 48.3595C26.9951 48.7074 27.211 49.3553 27.6189 49.3913H27.7149C27.9309 49.3913 28.8667 48.2035 28.8667 48.2035C28.8667 48.2035 45.5791 28.7917 47.2707 26.7281C47.4867 26.4762 47.6786 26.2002 47.8466 25.9123C47.8946 25.6844 47.8706 25.4564 47.7866 25.2404C47.7026 25.0245 47.5467 24.8205 47.3667 24.6646ZM33.1378 26.9321L40.2642 21.2693L44.4513 24.9645L33.1378 26.9321ZM30.3663 26.5602L18.093 16.9142L37.9607 20.4295L30.3663 26.5602ZM31.4701 29.0796L44.0314 27.136L29.6705 43.7285L31.4701 29.0796ZM16.4253 17.886L29.3466 28.3838L27.475 43.7405L16.4253 17.886Z" fill="white"/>
</svg>
