<svg width="32" height="32" viewBox="0 0 32 32" fill="none" xmlns="http://www.w3.org/2000/svg">
<g clip-path="url(#clip0_2338_3745)">
<path d="M16 32C24.8667 32 32 24.8667 32 16C32 7.13328 24.8667 0 16 0C7.13328 0 0 7.13328 0 16C0 24.8667 7.13328 32 16 32Z" fill="#2775CA"/>
<path d="M20.402 18.5333C20.402 16.2 19.002 15.4 16.202 15.0667C14.202 14.8 13.802 14.2667 13.802 13.3333C13.802 12.3999 14.4688 11.8 15.802 11.8C17.002 11.8 17.6687 12.2 18.002 13.2C18.0687 13.4 18.2688 13.5333 18.4688 13.5333H19.5353C19.802 13.5333 20.002 13.3333 20.002 13.0667V13C19.7353 11.5333 18.5353 10.4 17.002 10.2667V8.66674C17.002 8.40002 16.802 8.20002 16.4688 8.1333H15.4687C15.202 8.1333 15.002 8.3333 14.9353 8.66674V10.2C12.9353 10.4667 11.6687 11.8 11.6687 13.4667C11.6687 15.6667 13.002 16.5333 15.802 16.8667C17.6687 17.2 18.2688 17.6 18.2688 18.6667C18.2688 19.7335 17.3353 20.4667 16.0687 20.4667C14.3353 20.4667 13.7353 19.7333 13.5353 18.7333C13.4688 18.4667 13.2687 18.3333 13.0687 18.3333H11.9353C11.6688 18.3333 11.4688 18.5333 11.4688 18.8V18.8667C11.7353 20.5333 12.802 21.7333 15.002 22.0667V23.6667C15.002 23.9333 15.202 24.1333 15.5353 24.2H16.5353C16.802 24.2 17.002 24 17.0688 23.6667V22.0667C19.0688 21.7333 20.402 20.3333 20.402 18.5333Z" fill="white"/>
<path d="M12.6013 25.5336C7.4013 23.667 4.73458 17.867 6.66802 12.7336C7.66802 9.93355 9.86802 7.80027 12.6013 6.80027C12.868 6.66699 13.0013 6.46699 13.0013 6.13355V5.20027C13.0013 4.93355 12.868 4.73355 12.6013 4.66699C12.5346 4.66699 12.4013 4.66699 12.3346 4.73355C6.0013 6.73355 2.53458 13.467 4.53458 19.8003C5.73458 23.5336 8.6013 26.4003 12.3346 27.6003C12.6013 27.7335 12.868 27.6003 12.9346 27.3335C13.0013 27.267 13.0013 27.2003 13.0013 27.067V26.1335C13.0013 25.9335 12.8013 25.667 12.6013 25.5336ZM19.668 4.73355C19.4013 4.60027 19.1346 4.73355 19.068 5.00027C19.0013 5.06699 19.0013 5.13355 19.0013 5.26699V6.20027C19.0013 6.46699 19.2013 6.73355 19.4013 6.86699C24.6013 8.73355 27.268 14.5336 25.3346 19.667C24.3346 22.467 22.1346 24.6003 19.4013 25.6003C19.1346 25.7335 19.0013 25.9335 19.0013 26.267V27.2003C19.0013 27.467 19.1346 27.667 19.4013 27.7335C19.468 27.7335 19.6013 27.7336 19.668 27.667C26.0013 25.667 29.468 18.9336 27.468 12.6003C26.268 8.80027 23.3346 5.93355 19.668 4.73355Z" fill="white"/>
</g>
<defs>
<clipPath id="clip0_2338_3745">
<rect width="32" height="32" fill="white"/>
</clipPath>
</defs>
</svg>
