<svg width="65" height="65" viewBox="0 0 65 65" fill="none" xmlns="http://www.w3.org/2000/svg">
<g clip-path="url(#clip0_2132_8900)">
<path d="M26.9999 54C41.9116 54 53.9999 41.9117 53.9999 27C53.9999 12.0883 41.9116 -1.52588e-05 26.9999 -1.52588e-05C12.0883 -1.52588e-05 -6.10352e-05 12.0883 -6.10352e-05 27C-6.10352e-05 41.9117 12.0883 54 26.9999 54Z" fill="#009393"/>
<path fill-rule="evenodd" clip-rule="evenodd" d="M27.033 28.9298C31.6764 28.9298 35.5569 28.1448 36.5053 27.0959C35.7 26.2062 32.7874 25.5056 29.0884 25.3139V27.5299C28.4262 27.5643 27.7377 27.5812 27.0324 27.5812C26.327 27.5812 25.6385 27.5643 24.975 27.5299V25.3139C21.2773 25.5056 18.3633 26.2062 17.5581 27.0959C18.5078 28.1448 22.389 28.9298 27.0324 28.9298H27.033ZM35.2829 18.4991V21.5507H29.0884V23.6669C33.4395 23.893 36.7044 24.8231 36.7287 25.9362V28.2569C36.7044 29.3699 33.4395 30.2981 29.0884 30.5249V35.7183H24.9756V30.5249C20.6246 30.2987 17.361 29.3699 17.3367 28.2569V25.9362C17.361 24.8231 20.6246 23.893 24.9756 23.6669V21.5507H18.7812V18.4991H35.2836H35.2829ZM16.3451 13.6424H38.0909C38.6106 13.6424 39.0892 13.9158 39.3484 14.36L45.6833 25.2383C46.0113 25.8026 45.9141 26.5147 45.4457 26.9717L28.0077 43.9938C27.4421 44.5453 26.5335 44.5453 25.9692 43.9938L8.55289 26.9946C8.07432 26.5262 7.98387 25.7938 8.33689 25.2268L15.1092 14.3262C15.3731 13.9023 15.8415 13.6431 16.3458 13.6431L16.3451 13.6424Z" fill="white"/>
</g>
<g clip-path="url(#clip1_2132_8900)">
<g clip-path="url(#clip2_2132_8900)">
<rect width="26.069" height="26.069" transform="translate(36.3103 36.3103)" fill="white"/>
<path d="M38.6666 44.2353V54.4543C38.6666 55.1113 39.0107 55.7057 39.5843 56.0393L48.4373 61.1489C49.0004 61.4721 49.699 61.4721 50.2621 61.1489L59.1151 56.0393C59.6782 55.7161 60.0328 55.1113 60.0328 54.4543V44.2353C60.0328 43.5784 59.6886 42.984 59.1151 42.6503L50.2621 37.5408C49.699 37.2175 49.0004 37.2175 48.4373 37.5408L39.5843 42.6503C39.0212 42.9736 38.6771 43.5784 38.6771 44.2353H38.6666Z" fill="#213147"/>
<path d="M51.275 51.3262L50.0133 54.7881C49.982 54.882 49.982 54.9862 50.0133 55.0905L52.1822 61.0447L54.6953 59.5952L51.6817 51.3262C51.6087 51.1385 51.348 51.1385 51.275 51.3262Z" fill="#12AAFF"/>
<path d="M53.808 45.5076C53.735 45.3199 53.4743 45.3199 53.4013 45.5076L52.1396 48.9696C52.1083 49.0634 52.1083 49.1677 52.1396 49.272L55.6954 59.0218L58.2084 57.5723L53.808 45.5181V45.5076Z" fill="#12AAFF"/>
<path d="M49.3447 37.9266C49.4073 37.9266 49.4699 37.9475 49.522 37.9787L59.0945 43.5054C59.2092 43.5679 59.2718 43.6931 59.2718 43.8182V54.8714C59.2718 54.9966 59.1988 55.1217 59.0945 55.1843L49.522 60.7109C49.4699 60.7422 49.4073 60.763 49.3447 60.763C49.2822 60.763 49.2196 60.7422 49.1675 60.7109L39.5949 55.1843C39.4802 55.1217 39.4177 54.9966 39.4177 54.8714V43.8078C39.4177 43.6826 39.4907 43.5575 39.5949 43.4949L49.1675 37.9683C49.2196 37.937 49.2822 37.9162 49.3447 37.9162V37.9266ZM49.3447 36.3103C49.0006 36.3103 48.6669 36.3938 48.3541 36.571L38.7816 42.0976C38.1663 42.4522 37.791 43.0987 37.791 43.8078V54.861C37.791 55.5701 38.1663 56.2166 38.7816 56.5711L48.3541 62.0978C48.6565 62.275 49.0006 62.3584 49.3447 62.3584C49.6888 62.3584 50.0225 62.275 50.3353 62.0978L59.9079 56.5711C60.5231 56.2166 60.8985 55.5701 60.8985 54.861V43.8078C60.8985 43.0987 60.5231 42.4522 59.9079 42.0976L50.3249 36.571C50.0225 36.3938 49.6784 36.3103 49.3343 36.3103H49.3447Z" fill="#9DCCED"/>
<path d="M43.004 59.0321L43.8904 56.6129L45.6631 58.0832L44.0051 59.6056L43.004 59.0321Z" fill="#213147"/>
<path d="M48.5304 43.0256H46.1008C45.9235 43.0256 45.7567 43.1403 45.6941 43.3072L40.4907 57.5721L43.0038 59.0216L48.7389 43.3072C48.7911 43.1612 48.6868 43.0152 48.5408 43.0152L48.5304 43.0256Z" fill="white"/>
<path d="M52.785 43.0256H50.3554C50.1781 43.0256 50.0113 43.1403 49.9487 43.3072L44.005 59.5951L46.5181 61.0445L52.9832 43.3072C53.0353 43.1612 52.931 43.0152 52.785 43.0152V43.0256Z" fill="white"/>
</g>
</g>
<rect x="35.3103" y="35.3103" width="28.069" height="28.069" rx="14.0345" stroke="white" stroke-width="2"/>
<defs>
<clipPath id="clip0_2132_8900">
<rect width="54" height="54" fill="white"/>
</clipPath>
<clipPath id="clip1_2132_8900">
<rect x="36.3103" y="36.3103" width="26.069" height="26.069" rx="13.0345" fill="white"/>
</clipPath>
<clipPath id="clip2_2132_8900">
<rect width="26.069" height="26.069" fill="white" transform="translate(36.3103 36.3103)"/>
</clipPath>
</defs>
</svg>
