<svg width="65" height="65" viewBox="0 0 65 65" fill="none" xmlns="http://www.w3.org/2000/svg">
<g clip-path="url(#clip0_2132_8852)">
<path d="M27 54C41.9117 54 54 41.9117 54 27C54 12.0883 41.9117 0 27 0C12.0883 0 0 12.0883 0 27C0 41.9117 12.0883 54 27 54Z" fill="#009393"/>
<path fill-rule="evenodd" clip-rule="evenodd" d="M27.0331 28.9299C31.6764 28.9299 35.557 28.1448 36.5054 27.0959C35.7001 26.2062 32.7875 25.5056 29.0885 25.3139V27.5299C28.4263 27.5643 27.7378 27.5812 27.0324 27.5812C26.3271 27.5812 25.6386 27.5643 24.975 27.5299V25.3139C21.2774 25.5056 18.3634 26.2062 17.5581 27.0959C18.5079 28.1448 22.3891 28.9299 27.0324 28.9299H27.0331ZM35.283 18.4991V21.5508H29.0885V23.6669C33.4395 23.893 36.7045 24.8232 36.7288 25.9362V28.2569C36.7045 29.37 33.4395 30.2981 29.0885 30.5249V35.7183H24.9757V30.5249C20.6247 30.2988 17.361 29.37 17.3367 28.2569V25.9362C17.361 24.8232 20.6247 23.893 24.9757 23.6669V21.5508H18.7812V18.4991H35.2836H35.283ZM16.3452 13.6425H38.091C38.6107 13.6425 39.0893 13.9158 39.3485 14.36L45.6834 25.2383C46.0114 25.8026 45.9142 26.5147 45.4458 26.9717L28.0078 43.9938C27.4422 44.5453 26.5336 44.5453 25.9693 43.9938L8.55295 26.9946C8.07438 26.5262 7.98393 25.7938 8.33695 25.2268L15.1092 14.3262C15.3732 13.9023 15.8416 13.6431 16.3458 13.6431L16.3452 13.6425Z" fill="white"/>
</g>
<g clip-path="url(#clip1_2132_8852)">
<rect x="36.3103" y="36.3103" width="26.069" height="26.069" rx="13.0345" fill="#FF060A"/>
<path d="M56.8903 47.0267C56.1397 46.3594 55.0971 45.343 54.2527 44.6236L54.2006 44.5923C54.1172 44.5298 54.0233 44.4777 53.9243 44.4412C51.8809 44.0763 42.373 42.3717 42.1905 42.3926C42.1384 42.3978 42.0863 42.4186 42.0446 42.4447L41.9977 42.4812C41.9403 42.5385 41.8934 42.6063 41.8674 42.6845L41.8569 42.7158V42.8878V42.9139C42.9255 45.7704 47.153 55.1219 47.987 57.3217C48.0392 57.4729 48.133 57.7543 48.3102 57.77H48.3519C48.4458 57.77 48.8523 57.2539 48.8523 57.2539C48.8523 57.2539 56.1136 48.8198 56.8486 47.9232C56.9424 47.8138 57.0258 47.6939 57.0988 47.5688C57.1197 47.4697 57.1092 47.3707 57.0727 47.2769C57.0363 47.183 56.9685 47.0944 56.8903 47.0267ZM50.7081 48.0119L53.8044 45.5515L55.6236 47.157L50.7081 48.0119ZM49.5039 47.8503L44.1714 43.6593L52.8036 45.1866L49.5039 47.8503ZM49.9835 48.9449L55.4412 48.1005L49.2016 55.3096L49.9835 48.9449ZM43.4468 44.0815L49.0609 48.6426L48.2477 55.3148L43.4468 44.0815Z" fill="white"/>
</g>
<rect x="35.3103" y="35.3103" width="28.069" height="28.069" rx="14.0345" stroke="white" stroke-width="2"/>
<defs>
<clipPath id="clip0_2132_8852">
<rect width="54" height="54" fill="white"/>
</clipPath>
<clipPath id="clip1_2132_8852">
<rect x="36.3103" y="36.3103" width="26.069" height="26.069" rx="13.0345" fill="white"/>
</clipPath>
</defs>
</svg>
