<svg width="54" height="54" viewBox="0 0 54 54" fill="none" xmlns="http://www.w3.org/2000/svg">
<g clip-path="url(#clip0_2172_4656)">
<path d="M27 54C41.9117 54 54 41.9117 54 27C54 12.0883 41.9117 0 27 0C12.0883 0 0 12.0883 0 27C0 41.9117 12.0883 54 27 54Z" fill="#009393"/>
<path fill-rule="evenodd" clip-rule="evenodd" d="M27.0331 28.93C31.6764 28.93 35.557 28.145 36.5054 27.096C35.7001 26.2064 32.7875 25.5057 29.0885 25.314V27.53C28.4263 27.5645 27.7378 27.5813 27.0324 27.5813C26.3271 27.5813 25.6386 27.5645 24.975 27.53V25.314C21.2774 25.5057 18.3634 26.2064 17.5581 27.096C18.5079 28.145 22.3891 28.93 27.0324 28.93H27.0331ZM35.283 18.4992V21.5509H29.0885V23.667C33.4395 23.8931 36.7045 24.8233 36.7288 25.9364V28.257C36.7045 29.3701 33.4395 30.2982 29.0885 30.525V35.7185H24.9757V30.525C20.6247 30.2989 17.361 29.3701 17.3367 28.257V25.9364C17.361 24.8233 20.6247 23.8931 24.9757 23.667V21.5509H18.7812V18.4992H35.2836H35.283ZM16.3452 13.6426H38.091C38.6107 13.6426 39.0893 13.916 39.3485 14.3601L45.6834 25.2384C46.0114 25.8027 45.9142 26.5148 45.4458 26.9718L28.0078 43.994C27.4422 44.5454 26.5336 44.5454 25.9693 43.994L8.55295 26.9948C8.07438 26.5263 7.98393 25.7939 8.33695 25.2269L15.1092 14.3264C15.3732 13.9025 15.8416 13.6433 16.3458 13.6433L16.3452 13.6426Z" fill="white"/>
</g>
<defs>
<clipPath id="clip0_2172_4656">
<rect width="54" height="54" fill="white"/>
</clipPath>
</defs>
</svg>
