<svg width="242" height="58" viewBox="0 0 242 58" fill="none" xmlns="http://www.w3.org/2000/svg">
<g clip-path="url(#clip0_2002_5802)">
<path d="M-0.00195312 17.3377C23.3046 24.7916 42.1225 19.6198 54.6045 -0.0172119C52.317 13.6845 41.0262 26.8828 27.5602 35.6557C37.2454 34.224 48.3376 30.1195 55.4763 14.2832C53.4046 35.326 42.8217 49.9041 27.3703 57.9828L-0.00195312 17.3377Z" fill="black"/>
</g>
<path d="M231.352 42.9942L217.655 29.0459V42.9942H212.173V22.6923H218.128L231.84 36.6997V22.6923H237.292V42.9942H231.352Z" fill="black"/>
<path d="M207.179 32.858C207.179 34.6015 206.859 36.1431 206.218 37.4828C205.578 38.8126 204.662 39.9257 203.47 40.8221C202.278 41.7185 200.83 42.3982 199.126 42.8612C197.432 43.3143 195.526 43.5409 193.408 43.5409C191.29 43.5409 189.374 43.3143 187.66 42.8612C185.956 42.3982 184.503 41.7185 183.301 40.8221C182.099 39.9257 181.173 38.8126 180.523 37.4828C179.873 36.1431 179.548 34.6015 179.548 32.858C179.548 31.1144 179.873 29.5777 180.523 28.2479C181.173 26.9082 182.099 25.7902 183.301 24.8938C184.503 23.9974 185.956 23.3226 187.66 22.8695C189.374 22.4065 191.29 22.175 193.408 22.175C195.526 22.175 197.432 22.4065 199.126 22.8695C200.83 23.3226 202.278 23.9974 203.47 24.8938C204.662 25.7902 205.578 26.9082 206.218 28.2479C206.859 29.5777 207.179 31.1144 207.179 32.858ZM201.638 32.858C201.638 32.0995 201.515 31.3459 201.269 30.5973C201.032 29.8388 200.604 29.1591 199.983 28.5582C199.372 27.9573 198.535 27.4697 197.471 27.0954C196.407 26.7211 195.053 26.5339 193.408 26.5339C192.305 26.5339 191.334 26.6226 190.497 26.7999C189.66 26.9673 188.936 27.2038 188.325 27.5091C187.714 27.8145 187.202 28.174 186.788 28.5878C186.375 28.9916 186.045 29.43 185.798 29.9028C185.552 30.3658 185.375 30.8534 185.266 31.3656C185.168 31.868 185.119 32.3654 185.119 32.858C185.119 33.3603 185.168 33.8676 185.266 34.3799C185.375 34.8921 185.552 35.3846 185.798 35.8575C186.045 36.3204 186.375 36.7539 186.788 37.1577C187.202 37.5616 187.714 37.9162 188.325 38.2216C188.936 38.5171 189.66 38.7535 190.497 38.9308C191.334 39.0983 192.305 39.182 193.408 39.182C195.053 39.182 196.407 38.9948 197.471 38.6205C198.535 38.2462 199.372 37.7586 199.983 37.1577C200.604 36.5568 201.032 35.8821 201.269 35.1334C201.515 34.3749 201.638 33.6165 201.638 32.858Z" fill="black"/>
<path d="M158.581 42.9942H153.099V22.6923H166.841C168.318 22.6923 169.569 22.8449 170.594 23.1503C171.628 23.4557 172.466 23.8891 173.106 24.4506C173.756 25.0121 174.224 25.6918 174.51 26.4896C174.805 27.2777 174.953 28.1593 174.953 29.1345C174.953 29.9915 174.83 30.7402 174.583 31.3804C174.347 32.0207 174.022 32.5724 173.608 33.0353C173.204 33.4885 172.731 33.8726 172.19 34.1878C171.648 34.5031 171.077 34.7641 170.476 34.971L177.125 42.9942H170.712L164.565 35.5177H158.581V42.9942ZM169.412 29.105C169.412 28.7109 169.358 28.376 169.249 28.1002C169.151 27.8244 168.974 27.6028 168.717 27.4353C168.461 27.258 168.117 27.1299 167.683 27.0511C167.26 26.9723 166.728 26.9329 166.087 26.9329H158.581V31.277H166.087C166.728 31.277 167.26 31.2376 167.683 31.1588C168.117 31.08 168.461 30.9569 168.717 30.7894C168.974 30.6121 169.151 30.3855 169.249 30.1097C169.358 29.8339 169.412 29.499 169.412 29.105Z" fill="black"/>
<path d="M140.835 27.1102V42.9942H135.354V27.1102H126.739V22.6923H149.464V27.1102H140.835Z" fill="black"/>
<path d="M117.165 42.9942L103.467 29.0459V42.9942H97.9856V22.6923H103.94L117.652 36.6997V22.6923H123.104V42.9942H117.165Z" fill="black"/>
<path d="M91.7797 36.153C91.7797 37.1676 91.5285 38.1231 91.0261 39.0195C90.5237 39.9159 89.7701 40.6991 88.7654 41.3689C87.7606 42.0387 86.5047 42.5707 84.9976 42.9647C83.5003 43.3488 81.7469 43.5409 79.7374 43.5409C77.7279 43.5409 75.9646 43.3488 74.4476 42.9647C72.9405 42.5707 71.6845 42.0387 70.6798 41.3689C69.675 40.6991 68.9215 39.9159 68.4191 39.0195C67.9167 38.1231 67.6655 37.1676 67.6655 36.153V22.6923H73.1326V34.1878C73.1326 34.8675 73.2163 35.5127 73.3838 36.1235C73.5611 36.7244 73.8861 37.2514 74.359 37.7045C74.8416 38.1576 75.5115 38.5172 76.3685 38.7831C77.2353 39.0491 78.3583 39.1821 79.7374 39.1821C81.1066 39.1821 82.2197 39.0491 83.0767 38.7831C83.9337 38.5172 84.5986 38.1576 85.0714 37.7045C85.5541 37.2514 85.8792 36.7244 86.0466 36.1235C86.2141 35.5127 86.2978 34.8675 86.2978 34.1878V22.6923H91.7797V36.153Z" fill="black"/>
<defs>
<clipPath id="clip0_2002_5802">
<rect width="55.4783" height="58" fill="white"/>
</clipPath>
</defs>
</svg>
