<svg xmlns="http://www.w3.org/2000/svg" width="242" height="58" fill="none"><g clip-path="url(#a)"><path fill="#fff" d="M-.002 17.338C23.305 24.792 42.123 19.62 54.605-.017c-2.288 13.702-13.579 26.9-27.045 35.673 9.685-1.432 20.778-5.536 27.916-21.373-2.071 21.043-12.654 35.621-28.106 43.7z"/></g><path fill="#fff" d="m231.352 42.994-13.697-13.948v13.948h-5.482V22.692h5.955L231.84 36.7V22.692h5.452v20.302zM207.179 32.858q0 2.615-.961 4.625a9 9 0 0 1-2.748 3.34q-1.788 1.343-4.344 2.038-2.541.68-5.718.68t-5.748-.68q-2.556-.694-4.359-2.039a9.1 9.1 0 0 1-2.778-3.34q-.975-2.008-.975-4.624t.975-4.61a9.06 9.06 0 0 1 2.778-3.354q1.803-1.345 4.359-2.024 2.571-.695 5.748-.695t5.718.694q2.556.68 4.344 2.025a9 9 0 0 1 2.748 3.354q.961 1.994.961 4.61m-5.541 0q0-1.138-.369-2.26-.355-1.14-1.286-2.04-.916-.9-2.512-1.463-1.596-.561-4.063-.561-1.655 0-2.911.266-1.256.25-2.172.71a5.9 5.9 0 0 0-1.537 1.078 5.2 5.2 0 0 0-.99 1.315q-.369.694-.532 1.463a7.8 7.8 0 0 0 0 3.014q.163.769.532 1.477.37.695.99 1.3.62.607 1.537 1.065.917.443 2.172.709 1.256.25 2.911.251 2.467 0 4.063-.562 1.596-.56 2.512-1.462.931-.902 1.286-2.025a7.3 7.3 0 0 0 .369-2.275M158.581 42.994h-5.482V22.692h13.742q2.216 0 3.753.458 1.552.46 2.512 1.3a4.8 4.8 0 0 1 1.404 2.04q.443 1.182.443 2.645 0 1.285-.37 2.245a5.1 5.1 0 0 1-.975 1.655 5.8 5.8 0 0 1-1.418 1.153 9.6 9.6 0 0 1-1.714.783l6.649 8.023h-6.413l-6.147-7.476h-5.984zm10.831-13.889q0-.591-.163-1.005a1.3 1.3 0 0 0-.532-.665q-.383-.265-1.034-.384-.635-.118-1.596-.118h-7.506v4.344h7.506q.962 0 1.596-.118.65-.118 1.034-.37a1.37 1.37 0 0 0 .532-.68q.163-.413.163-1.004M140.835 27.11v15.884h-5.481V27.11h-8.615v-4.418h22.725v4.418zM117.165 42.994l-13.698-13.948v13.948h-5.481V22.692h5.954L117.652 36.7V22.692h5.452v20.302zM91.78 36.153q0 1.522-.754 2.867-.753 1.345-2.26 2.349t-3.768 1.596q-2.247.576-5.26.576-3.015 0-5.29-.576-2.26-.591-3.768-1.596t-2.26-2.35a5.8 5.8 0 0 1-.755-2.866v-13.46h5.468v11.495q0 1.02.25 1.935.267.901.976 1.582.725.68 2.01 1.078 1.3.4 3.368.4 2.055 0 3.34-.4 1.286-.399 1.994-1.078.724-.68.976-1.581.25-.917.25-1.936V22.692h5.483z"/><defs><clipPath id="a"><path fill="#fff" d="M0 0h55.478v58H0z"/></clipPath></defs></svg>