<svg width="48" height="48" viewBox="0 0 48 48" fill="none" xmlns="http://www.w3.org/2000/svg">
<g clip-path="url(#clip0_2175_561)">
<rect width="48" height="48" rx="24" fill="white"/>
<path fill-rule="evenodd" clip-rule="evenodd" d="M48 24C48 10.7452 37.2548 -5.79389e-07 24 0C10.7452 5.79389e-07 -5.79389e-07 10.7452 0 24C5.79389e-07 37.2548 10.7452 48 24 48C37.2548 48 48 37.2548 48 24ZM27.4255 41.962C27.4255 43.5901 26.0892 44.9136 24.1924 44.9516C24.1398 44.952 24.0872 44.9523 24.0346 44.9524H23.9654C12.4096 44.9337 3.04762 35.5602 3.04762 24C3.04762 12.4284 12.4283 3.04766 24 3.04765C24.0624 3.04765 24.1248 3.04793 24.187 3.04848C26.3275 3.0866 27.4255 4.40997 27.4255 6.03802C27.4255 7.69502 25.9608 8.91427 24.4089 8.91427C22.8572 8.91432 22.7809 8.91432 21.2955 9.03331C19.8101 9.15235 18.2741 10.3716 18.2741 12.0237C18.2741 13.6856 19.6241 15.0239 21.2955 15.0239H34.4692C36.1357 15.0239 37.4857 16.3622 37.4857 18.0143C37.4857 19.6664 36.1357 21.0047 34.4692 21.0047H14.1783C12.5069 21.0047 11.1569 22.3479 11.1569 24.0049C11.1569 25.657 12.5069 26.9953 14.1783 26.9953H24.409C26.0755 26.9953 27.4255 28.3336 27.4255 29.9906C27.4255 31.6427 26.0755 32.981 24.409 32.981H21.2955C19.6241 32.981 18.2741 34.3193 18.2741 35.9714C18.2741 37.6284 19.6577 38.8379 21.2955 38.9618C21.4247 38.9716 21.5427 38.9806 21.6515 38.9889C22.2279 39.0328 22.5428 39.0568 22.8582 39.0699C23.238 39.0857 23.6184 39.0857 24.4572 39.0857C26.1236 39.0857 27.4255 40.3099 27.4255 41.962Z" fill="#7132F5"/>
</g>
<defs>
<clipPath id="clip0_2175_561">
<rect width="48" height="48" rx="24" fill="white"/>
</clipPath>
</defs>
</svg>
