<svg width="48" height="48" viewBox="0 0 48 48" fill="none" xmlns="http://www.w3.org/2000/svg">
<g clip-path="url(#clip0_2175_111)">
<path d="M24 48C37.2548 48 48 37.2548 48 24C48 10.7452 37.2548 0 24 0C10.7452 0 0 10.7452 0 24C0 37.2548 10.7452 48 24 48Z" fill="black"/>
<path d="M24.0153 7.46387L21.0448 12.4044L31.768 30.781L23.0687 40.5363C23.0687 40.5363 29.9064 40.4958 29.8658 40.5363C29.8253 40.5769 37.999 31.3481 37.999 31.3481L24.0153 7.46387ZM20.1145 14.2265L9.99902 31.4292L17.9699 40.5363H20.9677L25.3503 35.4355H20.4808L16.1874 30.6602L23.0657 18.9621L20.1145 14.2265Z" fill="white"/>
</g>
<defs>
<clipPath id="clip0_2175_111">
<rect width="48" height="48" fill="white"/>
</clipPath>
</defs>
</svg>
