<svg width="48" height="48" viewBox="0 0 48 48" fill="none" xmlns="http://www.w3.org/2000/svg">
<g clip-path="url(#clip0_2175_270)">
<path d="M24.0001 36.2196V45.1866C14.7764 45.1866 7.29688 37.707 7.29688 28.4834C7.29688 19.2596 14.7764 11.7801 24.0001 11.7801V2.81299C33.2238 2.81299 40.7034 10.2926 40.7034 19.5162C40.7034 28.74 33.2238 36.2196 24.0001 36.2196Z" fill="white"/>
<path d="M24 0C10.7464 0 0 10.7464 0 24C0 37.2536 10.7464 48 24 48C37.2536 48 48 37.2536 48 24C48 10.7464 37.2536 0 24 0ZM24 36.2198V45.1868C14.7762 45.1868 7.29674 37.7072 7.29674 28.4835C7.29674 19.2598 14.7762 11.7803 24 11.7803V2.81318C33.2237 2.81318 40.7033 10.2928 40.7033 19.5164C40.7033 28.7402 33.2237 36.2198 24 36.2198ZM32.2637 23.9226V24.0774C28.6206 25.8919 25.8918 28.6206 24.0774 32.2637H23.9226C22.1081 28.6206 19.3793 25.8919 15.7362 24.0774V23.9226C19.3793 22.1081 22.1081 19.3794 23.9226 15.7363H24.0774C25.8918 19.3794 28.6206 22.1081 32.2637 23.9226Z" fill="#FF0420"/>
</g>
<defs>
<clipPath id="clip0_2175_270">
<rect width="48" height="48" fill="white"/>
</clipPath>
</defs>
</svg>
