<svg width="1024" height="1024" viewBox="0 0 1024 1024" fill="none" xmlns="http://www.w3.org/2000/svg">
<rect width="1024" height="1024" rx="512" fill="black"/>
<path d="M665.747 245.552C618.251 218.169 566.833 204 511 204C455.167 204 403.76 217.686 356.253 245.552C308.757 273.418 271.531 310.573 243.62 358.003C215.708 405.422 202 456.757 202 512.5C202 568.243 215.708 619.566 243.62 666.997C271.531 714.416 308.745 751.582 356.253 779.448C403.749 807.314 455.167 821 511 821C566.833 821 618.24 807.314 665.747 779.448C713.243 751.582 750.469 714.427 778.381 666.997C806.292 619.566 820 568.243 820 512.5C820 456.757 806.292 405.434 778.381 358.003C750.469 310.584 713.255 273.418 665.747 245.552ZM530.102 623.975C495.337 623.975 467.425 614.193 445.874 594.157C431.188 580.471 421.884 563.846 416.985 544.292H749.986C746.559 572.652 738.233 599.048 725.502 623.986H529.619H530.113L530.102 623.975ZM417.469 481.695C421.873 462.624 431.671 446.01 445.874 432.312C466.931 412.266 495.337 402.001 530.102 402.001H726.963C739.694 426.939 747.525 453.335 750.469 481.695H417.469ZM302.386 389.784C323.937 352.63 352.826 323.294 389.557 301.295C426.289 279.296 466.931 268.538 511 268.538C555.069 268.538 595.722 279.296 632.443 301.295C651.05 312.536 668.185 325.74 682.883 340.895H527.158C491.898 340.895 460.56 348.232 433.132 362.894C405.704 377.557 384.164 397.603 368.984 423.517C358.208 441.612 351.354 461.166 348.421 482.188H272.025C275.947 449.431 285.733 418.626 302.386 390.278V389.784ZM632.443 723.705C595.711 745.704 555.069 756.462 511 756.462C466.931 756.462 426.278 745.704 389.557 723.705C352.826 701.706 323.443 672.37 302.386 635.216C286.228 607.35 275.947 577.038 272.025 544.764H348.421C351.354 565.786 358.219 585.34 368.984 603.435C384.164 628.855 405.715 649.395 433.132 664.058C460.56 678.72 491.898 686.057 527.158 686.057H681.411C666.725 700.719 650.556 713.44 632.443 724.187V723.694V723.705Z" fill="white"/>
</svg>
